<svg id="Layer_1" enable-background="new 0 0 512.132 512.132" height="512" viewBox="0 0 512.132 512.132" width="512" xmlns="http://www.w3.org/2000/svg"><g clip-rule="evenodd" fill-rule="evenodd"><path d="m416.262 256.066 62.745-62.745c44.166-44.167 44.166-116.03 0-160.195-44.167-44.167-116.03-44.167-160.195-.001l-62.745 62.745-62.746-62.745c-44.167-44.167-116.031-44.165-160.196 0-44.166 44.167-44.166 116.03 0 160.195l62.746 62.746-62.746 62.746c-44.166 44.166-44.166 116.029 0 160.195 22.083 22.083 51.091 33.124 80.098 33.124 29.008 0 58.015-11.041 80.098-33.124l62.747-62.746 62.746 62.746c22.083 22.083 51.09 33.124 80.097 33.124 29.008 0 58.016-11.042 80.099-33.125 44.166-44.166 44.166-116.029 0-160.195zm-299.691-21.725 117.77-117.77 161.22 161.22-117.77 117.771zm223.454-180.003c32.469-32.469 85.301-32.468 117.77.001s32.469 85.3 0 117.77l-62.745 62.745-117.77-117.771zm-285.688 0c16.234-16.234 37.56-24.352 58.886-24.352 21.325 0 42.65 8.117 58.885 24.352l41.02 41.02-117.77 117.77-41.021-41.021c-32.468-32.469-32.468-85.3 0-117.769zm117.77 403.457c-32.469 32.469-85.301 32.469-117.77 0s-32.469-85.3 0-117.77l62.746-62.746 117.77 117.77zm285.687-.001c-32.468 32.469-85.3 32.471-117.77.001l-41.021-41.021 117.77-117.771 41.021 41.021c32.469 32.469 32.469 85.301 0 117.77z"/><circle cx="235.03" cy="192.25" r="15"/><path d="m288.063 245.283c5.858-5.858 5.858-15.355 0-21.213s-15.355-5.858-21.213 0-5.858 15.355 0 21.213c5.857 5.857 15.354 5.857 21.213 0z"/><path d="m330.489 287.709c5.858-5.858 5.858-15.355 0-21.213s-15.355-5.858-21.213 0-5.858 15.355 0 21.213 15.355 5.858 21.213 0z"/><circle cx="192.25" cy="235.03" r="15"/><path d="m224.069 266.849c-5.858 5.858-5.858 15.355 0 21.213s15.355 5.858 21.213 0 5.858-15.355 0-21.213c-5.857-5.857-15.355-5.857-21.213 0z"/><path d="m287.709 309.276c-5.858-5.858-15.355-5.858-21.213 0s-5.858 15.355 0 21.213 15.355 5.858 21.213 0 5.858-15.355 0-21.213z"/></g></svg>