<?xml version="1.0" encoding="utf-8"?>
<!-- Generator: Adobe Illustrator 16.0.0, SVG Export Plug-In . SVG Version: 6.00 Build 0)  -->
<!DOCTYPE svg PUBLIC "-//W3C//DTD SVG 1.0//EN" "http://www.w3.org/TR/2001/REC-SVG-20010904/DTD/svg10.dtd">
<svg version="1.0" id="Layer_1" xmlns="http://www.w3.org/2000/svg" xmlns:xlink="http://www.w3.org/1999/xlink" x="0px" y="0px"
	 width="512px" height="512px" viewBox="0 0 512 512" enable-background="new 0 0 512 512" xml:space="preserve">
<g>
	<path d="M416.155,256l62.729-62.729c44.154-44.155,44.154-116,0-160.153c-44.155-44.156-116-44.156-160.153-0.001l-62.729,62.729
		l-62.73-62.729c-44.155-44.156-116.001-44.154-160.154,0c-44.154,44.155-44.154,116,0,160.153L95.846,256l-62.729,62.73
		c-44.154,44.154-44.154,115.999,0,160.153C55.194,500.961,84.195,512,113.194,512c29.001,0,58-11.039,80.077-33.116l62.731-62.729
		l62.729,62.729C340.809,500.961,369.809,512,398.808,512c29.001,0,58.001-11.04,80.078-33.117
		c44.155-44.154,44.155-115.999,0-160.153L416.155,256z M116.541,234.281l117.739-117.74l161.179,161.179l-117.74,117.74
		L116.541,234.281z M339.937,54.324c32.461-32.461,85.279-32.46,117.74,0.001c32.46,32.461,32.46,85.278,0,117.739l-62.729,62.729
		L277.208,117.052L339.937,54.324z M54.323,54.324c16.23-16.229,37.551-24.346,58.871-24.346c21.319,0,42.64,8.115,58.87,24.346
		l41.01,41.01L95.333,213.073l-41.011-41.011C21.864,139.602,21.864,86.785,54.323,54.324z M172.063,457.677
		c-32.461,32.46-85.279,32.46-117.74,0c-32.46-32.461-32.46-85.278,0-117.74l62.73-62.729l117.739,117.739L172.063,457.677z
		 M457.676,457.677c-32.46,32.46-85.278,32.462-117.74,0.001l-41.01-41.011l117.739-117.741l41.011,41.011
		C490.136,372.397,490.136,425.216,457.676,457.677z"/>
	<circle cx="234.969" cy="192.2" r="14.997"/>
	<path d="M287.989,245.219c5.856-5.856,5.856-15.351,0-21.207s-15.351-5.856-21.207,0s-5.856,15.351,0,21.207
		C272.637,251.075,282.131,251.075,287.989,245.219z"/>
	<path d="M330.404,287.635c5.856-5.856,5.856-15.351,0-21.207s-15.351-5.856-21.208,0c-5.856,5.856-5.856,15.351,0,21.207
		C315.053,293.491,324.547,293.491,330.404,287.635z"/>
	<circle cx="192.2" cy="234.969" r="14.996"/>
	<path d="M224.011,266.78c-5.856,5.856-5.856,15.352,0,21.208s15.352,5.856,21.208,0s5.856-15.352,0-21.208
		C239.364,260.925,229.867,260.925,224.011,266.78z"/>
	<path d="M287.635,309.196c-5.856-5.856-15.352-5.856-21.208,0s-5.856,15.352,0,21.208s15.352,5.856,21.208,0
		S293.491,315.052,287.635,309.196z"/>
</g>
</svg>
