<?xml version="1.0" encoding="utf-8"?>
<!-- Generator: Adobe Illustrator 16.0.0, SVG Export Plug-In . SVG Version: 6.00 Build 0)  -->
<!DOCTYPE svg PUBLIC "-//W3C//DTD SVG 1.1//EN" "http://www.w3.org/Graphics/SVG/1.1/DTD/svg11.dtd">
<svg version="1.1" id="Layer_1" xmlns="http://www.w3.org/2000/svg" xmlns:xlink="http://www.w3.org/1999/xlink" x="0px" y="0px"
	 width="238.859px" height="231.359px" viewBox="0 0 238.859 231.359" enable-background="new 0 0 238.859 231.359"
	 xml:space="preserve">
<g>
	<path d="M74.56,186.481c-1.92,1.92-4.8,1.92-6.72,0s-1.92-4.801,0-6.722c1.92-1.92,4.8-1.92,6.72,0
		C76.48,181.68,76.48,184.561,74.56,186.481z M159.04,206.16c-1.92,1.92-1.92,4.8,0,6.72s4.8,1.92,6.72,0s1.92-4.8,0-6.72
		S160.96,204.24,159.04,206.16z M242.08,166.32l-15.36,15.6c-5.76,5.761-13.2,9.12-21.36,9.12c-0.72,0-1.68,0-2.64,0
		c0,0,0,0.239-0.24,0.239l-8.64,8.641c6.72,4.32,14.64,12.96,14.64,26.642c0,2.639-2.16,4.799-4.8,4.799H55.36
		c-1.438,0-2.64-0.479-3.6-1.68c-0.96-0.961-1.44-2.4-1.2-3.841c0.24-1.198,2.642-30.72-41.28-48.96c-1.68-0.72-2.88-2.16-2.88-4.08
		l-1.92-25.92c0-0.72,0-1.439,0.24-2.16l39.84-100.8c0,0,2.88-7.439,4.8-18.479c-3.119-5.04-5.52-13.92,1.682-20.88
		C54.16,1.68,58,0,62.56,0C69.04,0,75.04,3.6,76.241,8.64c1.92,6.72,0.238,14.64-4.32,37.92c-1.68,7.92-3.602,18-6,30.239
		c-8.16,43.2-10.562,60-0.48,82.561l6,1.681l28.08-28.32c-3.12-6-4.56-12.96-4.56-19.92c0-13.439,6-25.92,16.318-34.319l21.36-21.36
		c0.96-0.96,2.16-1.439,3.36-1.439s2.398,0.479,3.358,1.439l55.44,55.92c1.92,1.92,1.92,4.8,0,6.72l-24,24.48
		c-8.4,8.64-19.44,13.44-31.68,13.44c-5.762,0-11.28-1.199-16.802-3.359l0,0L105.04,171.6l55.92,17.041l16.8-16.802
		c-0.72-1.68-1.2-3.12-1.44-3.84c-0.96-2.399-0.96-5.52-0.96-7.2c0-9.119,3.842-17.52,10.802-23.279l13.68-13.681
		c1.92-1.92,5.04-1.92,6.72,0l35.521,35.761C243.76,161.279,243.76,164.4,242.08,166.32z M104.32,112.8
		c0,6.721,1.921,13.2,5.28,18.721c0.24,0.239,5.521,9.359,16.32,13.92c4.318,1.68,8.64,2.64,13.2,2.64
		c9.358,0,18.238-3.6,24.72-10.56l20.64-21.12l-48.72-49.2l-18,18.24c0,0-0.24,0.239-0.48,0.239
		C109.12,92.4,104.32,102.24,104.32,112.8z M76.48,162.719l23.28,7.2l17.76-18c-9.12-5.04-14.16-12.479-15.84-14.64L76.48,162.719z
		 M14.32,147.359v1.439L55.84,161.52C45.28,136.8,48.4,117.6,56.56,75.12c2.4-12.479,4.32-22.32,6-30.479
		c4.08-20.4,5.76-28.801,4.562-33.36c-0.24-0.48-1.92-1.44-4.562-1.44c-1.2,0-3.12,0.24-4.8,1.92c-4.08,3.841,0,9.36,0.48,9.841
		c0.72,0.96,1.198,2.399,0.96,3.6c-2.16,13.2-5.521,22.08-5.521,22.32L14.32,147.359z M198.4,221.52
		C196,210,185.68,206.16,185.2,206.16L66.64,169.68H66.4L14.8,153.84l1.2,15.359c37.2,16.561,43.439,41.521,44.16,52.321H198.4z
		 M189.28,197.279l7.44-7.68c-8.4-2.881-13.44-8.16-16.56-12.721l-0.722-0.479l-13.68,13.68l21.84,6.72
		C188.56,197.04,189.04,197.279,189.28,197.279z M231.76,162.96l-28.56-29.04l-10.32,10.561l-0.24,0.239
		c-4.8,3.842-7.438,9.842-7.438,16.08c0,1.92,0,3.12,0.238,3.602c0,0.24,0.24,0.72,0.24,0.959c0,0.479,2.88,11.521,14.64,15.359
		c1.682,0.479,4.08,0.479,5.04,0.479c5.521,0,10.802-2.159,14.642-6.239L231.76,162.96z M145.84,209.76c-0.24,1.2-1.2,2.16-2.4,2.16
		H78.4c-1.438,0-2.398-0.96-2.398-2.399V193.92c0-0.721,0.24-1.438,0.96-1.92c0.72-0.48,1.438-0.721,2.16-0.479l64.8,15.601
		C145.12,207.359,145.84,208.561,145.84,209.76z M123.04,207.12L80.8,197.04v10.08H123.04z"/>
</g>
</svg>
