<svg xmlns="http://www.w3.org/2000/svg" xmlns:xlink="http://www.w3.org/1999/xlink" version="1.1" x="0px" y="0px" viewBox="0 0 100 125" enable-background="new 0 0 100 100" xml:space="preserve"><g><path d="M29.4,79.4c-0.8,0.8-2,0.8-2.8,0c-0.8-0.8-0.8-2,0-2.8c0.8-0.8,2-0.8,2.8,0C30.2,77.4,30.2,78.6,29.4,79.4z M64.6,87.6   c-0.8,0.8-0.8,2,0,2.8c0.8,0.8,2,0.8,2.8,0c0.8-0.8,0.8-2,0-2.8C66.6,86.8,65.4,86.8,64.6,87.6z M99.2,71l-6.4,6.5   c-2.4,2.4-5.5,3.8-8.9,3.8c-0.3,0-0.7,0-1.1,0c0,0,0,0.1-0.1,0.1l-3.6,3.6c2.8,1.8,6.1,5.4,6.1,11.1c0,1.1-0.9,2-2,2H21.4   c-0.6,0-1.1-0.2-1.5-0.7c-0.4-0.4-0.6-1-0.5-1.6c0.1-0.5,1.1-12.8-17.2-20.4c-0.7-0.3-1.2-0.9-1.2-1.7L0.2,62.9   c0-0.3,0-0.6,0.1-0.9l16.6-42c0,0,1.2-3.1,2-7.7c-1.3-2.1-2.3-5.8,0.7-8.7c1.3-1.2,2.9-1.9,4.8-1.9c2.7,0,5.2,1.5,5.7,3.6   c0.8,2.8,0.1,6.1-1.8,15.8c-0.7,3.3-1.5,7.5-2.5,12.6c-3.4,18-4.4,25-0.2,34.4l2.5,0.7L39.8,57c-1.3-2.5-1.9-5.4-1.9-8.3   c0-5.6,2.5-10.8,6.8-14.3l8.9-8.9c0.4-0.4,0.9-0.6,1.4-0.6s1,0.2,1.4,0.6l23.1,23.3c0.8,0.8,0.8,2,0,2.8l-10,10.2   c-3.5,3.6-8.1,5.6-13.2,5.6c-2.4,0-4.7-0.5-7-1.4c0,0,0,0,0,0l-7.2,7.2l23.3,7.1l7-7c-0.3-0.7-0.5-1.3-0.6-1.6   c-0.4-1-0.4-2.3-0.4-3c0-3.8,1.6-7.3,4.5-9.7l5.7-5.7c0.8-0.8,2.1-0.8,2.8,0l14.8,14.9C99.9,68.9,99.9,70.2,99.2,71z M41.8,48.7   c0,2.8,0.8,5.5,2.2,7.8c0.1,0.1,2.3,3.9,6.8,5.8c1.8,0.7,3.6,1.1,5.5,1.1c3.9,0,7.6-1.5,10.3-4.4l8.6-8.8L54.9,29.7l-7.5,7.6   c0,0-0.1,0.1-0.2,0.1C43.8,40.2,41.8,44.3,41.8,48.7z M30.2,69.5l9.7,3l7.4-7.5c-3.8-2.1-5.9-5.2-6.6-6.1L30.2,69.5z M4.3,63.1   l0,0.6L21.6,69c-4.4-10.3-3.1-18.3,0.3-36c1-5.2,1.8-9.3,2.5-12.7c1.7-8.5,2.4-12,1.9-13.9c-0.1-0.2-0.8-0.6-1.9-0.6   c-0.5,0-1.3,0.1-2,0.8c-1.7,1.6,0,3.9,0.2,4.1c0.3,0.4,0.5,1,0.4,1.5c-0.9,5.5-2.3,9.2-2.3,9.3L4.3,63.1z M81,94   c-1-4.8-5.3-6.4-5.5-6.4L26.1,72.4c0,0-0.1,0-0.1,0L4.5,65.8l0.5,6.4C20.5,79.1,23.1,89.5,23.4,94H81z M77.2,83.9l3.1-3.2   c-3.5-1.2-5.6-3.4-6.9-5.3l-0.3-0.2l-5.7,5.7l9.1,2.8C76.9,83.8,77.1,83.9,77.2,83.9z M94.9,69.6L83,57.5l-4.3,4.4   c0,0-0.1,0.1-0.1,0.1c-2,1.6-3.1,4.1-3.1,6.7c0,0.8,0,1.3,0.1,1.5c0,0.1,0.1,0.3,0.1,0.4c0,0.2,1.2,4.8,6.1,6.4   c0.7,0.2,1.7,0.2,2.1,0.2c2.3,0,4.5-0.9,6.1-2.6L94.9,69.6z M59.1,89.1c-0.1,0.5-0.5,0.9-1,0.9H31c-0.6,0-1-0.4-1-1v-6.5   c0-0.3,0.1-0.6,0.4-0.8s0.6-0.3,0.9-0.2L58.3,88C58.8,88.1,59.1,88.6,59.1,89.1z M49.6,88L32,83.8V88H49.6z"/></g><text x="0" y="115" fill="#000000" font-size="5px" font-weight="bold" font-family="'Helvetica Neue', Helvetica, Arial-Unicode, Arial, Sans-serif">Created by Andrew Cooper</text><text x="0" y="120" fill="#000000" font-size="5px" font-weight="bold" font-family="'Helvetica Neue', Helvetica, Arial-Unicode, Arial, Sans-serif">from the Noun Project</text></svg>