<?xml version="1.0" encoding="utf-8"?>
<!-- Generator: Adobe Illustrator 16.0.0, SVG Export Plug-In . SVG Version: 6.00 Build 0)  -->
<!DOCTYPE svg PUBLIC "-//W3C//DTD SVG 1.1//EN" "http://www.w3.org/Graphics/SVG/1.1/DTD/svg11.dtd">
<svg version="1.1" id="Layer_1" xmlns="http://www.w3.org/2000/svg" xmlns:xlink="http://www.w3.org/1999/xlink" x="0px" y="0px"
	 width="238.86px" height="231.359px" viewBox="30.48 4.08 238.86 231.359" enable-background="new 30.48 4.08 238.86 231.359"
	 xml:space="preserve">
<g>
	<path d="M100.56,190.561c-1.92,1.92-4.8,1.92-6.72,0s-1.92-4.801,0-6.721s4.8-1.92,6.72,0S102.48,188.641,100.56,190.561z
		 M185.04,210.24c-1.92,1.92-1.92,4.8,0,6.72s4.8,1.92,6.72,0s1.92-4.8,0-6.72S186.96,208.32,185.04,210.24z M268.08,170.4
		L252.72,186c-5.76,5.76-13.2,9.12-21.36,9.12c-0.72,0-1.68,0-2.64,0c0,0,0,0.239-0.24,0.239L219.84,204
		c6.72,4.32,14.64,12.96,14.64,26.641c0,2.639-2.16,4.799-4.8,4.799H81.36c-1.439,0-2.64-0.479-3.6-1.68
		c-0.96-0.96-1.44-2.4-1.2-3.84c0.24-1.199,2.641-30.72-41.28-48.96c-1.68-0.72-2.88-2.16-2.88-4.08l-1.92-25.92
		c0-0.72,0-1.44,0.24-2.16L70.56,48c0,0,2.88-7.44,4.8-18.48c-3.12-5.04-5.52-13.92,1.681-20.88C80.16,5.76,84,4.08,88.56,4.08
		c6.48,0,12.48,3.6,13.681,8.64c1.92,6.72,0.239,14.64-4.32,37.92c-1.68,7.92-3.601,18-6,30.24c-8.16,43.2-10.561,60-0.48,82.56
		l6,1.681l28.08-28.32c-3.12-6-4.56-12.96-4.56-19.92c0-13.44,6-25.92,16.319-34.32l21.36-21.36c0.96-0.96,2.16-1.44,3.36-1.44
		s2.399,0.48,3.359,1.44l55.44,55.92c1.92,1.92,1.92,4.8,0,6.72l-24,24.48c-8.4,8.64-19.44,13.44-31.68,13.44
		c-5.761,0-11.28-1.199-16.801-3.359l0,0L131.04,175.68l55.92,17.041l16.8-16.801c-0.72-1.68-1.2-3.12-1.44-3.84
		c-0.96-2.4-0.96-5.52-0.96-7.2c0-9.12,3.841-17.52,10.801-23.28l13.68-13.68c1.92-1.92,5.04-1.92,6.72,0l35.521,35.76
		C269.76,165.359,269.76,168.48,268.08,170.4z M130.32,116.88c0,6.72,1.92,13.2,5.28,18.72c0.24,0.24,5.521,9.36,16.32,13.92
		c4.319,1.68,8.64,2.64,13.2,2.64c9.359,0,18.239-3.6,24.72-10.56l20.64-21.12l-48.72-49.2l-18,18.24c0,0-0.24,0.24-0.48,0.24
		C135.12,96.48,130.32,106.32,130.32,116.88z M102.48,166.8l23.28,7.2l17.76-18c-9.12-5.04-14.16-12.48-15.84-14.64L102.48,166.8z
		 M40.32,151.439v1.44L81.84,165.6C71.28,140.88,74.4,121.68,82.56,79.2c2.4-12.48,4.32-22.32,6-30.48
		c4.08-20.4,5.76-28.8,4.561-33.36c-0.24-0.48-1.92-1.44-4.561-1.44c-1.2,0-3.12,0.24-4.8,1.92c-4.08,3.84,0,9.36,0.48,9.84
		c0.72,0.96,1.199,2.4,0.96,3.6c-2.16,13.2-5.521,22.08-5.521,22.32L40.32,151.439z M224.4,225.6
		C222,214.08,211.68,210.24,211.2,210.24L92.64,173.76H92.4l-51.6-15.84l1.2,15.359C79.2,189.84,85.44,214.8,86.16,225.6H224.4z
		 M215.28,201.359l7.44-7.68c-8.4-2.88-13.44-8.16-16.56-12.72l-0.721-0.479l-13.68,13.68l21.84,6.72
		C214.56,201.12,215.04,201.359,215.28,201.359z M257.76,167.04L229.2,138l-10.32,10.56l-0.24,0.24
		c-4.8,3.841-7.439,9.841-7.439,16.08c0,1.92,0,3.12,0.239,3.601c0,0.24,0.24,0.72,0.24,0.959c0,0.48,2.88,11.521,14.64,15.36
		c1.681,0.479,4.08,0.479,5.04,0.479c5.521,0,10.801-2.159,14.641-6.239L257.76,167.04z M171.84,213.84c-0.24,1.2-1.2,2.16-2.4,2.16
		H104.4c-1.439,0-2.399-0.96-2.399-2.4V198c0-0.721,0.24-1.439,0.96-1.92s1.439-0.721,2.16-0.48l64.8,15.601
		C171.12,211.439,171.84,212.641,171.84,213.84z M149.04,211.2l-42.24-10.08v10.08H149.04z"/>
</g>
</svg>
