<?xml version="1.0" encoding="utf-8"?>
<!-- Generator: Adobe Illustrator 16.0.0, SVG Export Plug-In . SVG Version: 6.00 Build 0)  -->
<!DOCTYPE svg PUBLIC "-//W3C//DTD SVG 1.0//EN" "http://www.w3.org/TR/2001/REC-SVG-20010904/DTD/svg10.dtd">
<svg version="1.0" id="Layer_1" xmlns="http://www.w3.org/2000/svg" xmlns:xlink="http://www.w3.org/1999/xlink" x="0px" y="0px"
	 width="238.859px" height="231.359px" viewBox="0 0 238.859 231.359" enable-background="new 0 0 238.859 231.359"
	 xml:space="preserve">
<g>
	<path d="M74.56,186.481c-1.92,1.92-4.802,1.92-6.722,0s-1.92-4.801,0-6.724c1.92-1.92,4.802-1.92,6.722,0
		C76.48,181.68,76.48,184.561,74.56,186.481z M159.04,206.16c-1.92,1.92-1.92,4.8,0,6.72s4.8,1.92,6.72,0
		c1.922-1.92,1.922-4.8,0-6.72C163.84,204.24,160.96,204.24,159.04,206.16z M242.08,166.32l-15.358,15.6
		c-5.762,5.763-13.2,9.12-21.36,9.12c-0.72,0-1.68,0-2.64,0c0,0,0,0.239-0.24,0.239l-8.642,8.641
		c6.722,4.32,14.642,12.96,14.642,26.644c0,2.639-2.16,4.799-4.8,4.799H55.36c-1.438,0-2.64-0.479-3.602-1.68
		c-0.96-0.961-1.438-2.4-1.198-3.843c0.238-1.196,2.642-30.72-41.28-48.96c-1.68-0.72-2.88-2.158-2.88-4.079L4.48,146.88
		c0-0.72,0-1.438,0.24-2.158L44.56,43.92c0,0,2.88-7.438,4.8-18.479c-3.119-5.04-5.521-13.92,1.682-20.88C54.16,1.68,58,0,62.56,0
		C69.04,0,75.04,3.6,76.241,8.64c1.92,6.72,0.238,14.64-4.32,37.92c-1.68,7.92-3.602,18-6,30.237
		c-8.158,43.2-10.562,60-0.479,82.563l6,1.681l28.08-28.318c-3.12-6-4.562-12.96-4.562-19.922c0-13.438,6-25.92,16.318-34.317
		l21.36-21.36c0.96-0.96,2.158-1.438,3.358-1.438s2.398,0.479,3.358,1.438l55.438,55.92c1.92,1.92,1.92,4.8,0,6.722l-24,24.479
		c-8.398,8.64-19.438,13.44-31.68,13.44c-5.762,0-11.28-1.199-16.802-3.359l0,0L105.04,171.6l55.92,17.041l16.8-16.804
		c-0.72-1.68-1.198-3.118-1.438-3.84c-0.96-2.397-0.96-5.52-0.96-7.2c0-9.117,3.842-17.52,10.802-23.277l13.68-13.683
		c1.922-1.92,5.04-1.92,6.722,0l35.521,35.763C243.76,161.279,243.76,164.4,242.08,166.32z M104.32,112.8
		c0,6.723,1.921,13.2,5.28,18.723c0.238,0.239,5.521,9.357,16.318,13.92c4.318,1.68,8.642,2.64,13.2,2.64
		c9.358,0,18.238-3.6,24.72-10.56l20.642-21.12l-48.722-49.2l-18,18.24c0,0-0.238,0.239-0.479,0.239
		C109.12,92.4,104.32,102.24,104.32,112.8z M76.48,162.719l23.278,7.198l17.762-18c-9.12-5.04-14.16-12.479-15.84-14.64
		L76.48,162.719z M14.32,147.359v1.438l41.52,12.724C45.28,136.8,48.4,117.6,56.56,75.12c2.398-12.479,4.318-22.32,6-30.479
		c4.08-20.4,5.76-28.803,4.562-33.36c-0.24-0.479-1.92-1.44-4.562-1.44c-1.2,0-3.12,0.24-4.802,1.922
		c-4.078,3.841,0,9.358,0.48,9.841c0.72,0.96,1.198,2.397,0.96,3.6c-2.16,13.2-5.521,22.08-5.521,22.32L14.32,147.359z
		 M198.4,221.52c-2.4-11.521-12.72-15.36-13.2-15.36L66.64,169.68H66.4L14.8,153.84l1.2,15.359
		c37.2,16.563,43.439,41.521,44.16,52.321H198.4L198.4,221.52z M189.28,197.279l7.44-7.68c-8.4-2.881-13.44-8.16-16.562-12.723
		l-0.722-0.479l-13.682,13.68l21.842,6.72C188.56,197.04,189.04,197.279,189.28,197.279z M231.76,162.96l-28.56-29.04l-10.32,10.563
		l-0.238,0.239c-4.802,3.842-7.438,9.842-7.438,16.078c0,1.922,0,3.12,0.238,3.604c0,0.24,0.24,0.72,0.24,0.959
		c0,0.479,2.88,11.521,14.64,15.359c1.682,0.479,4.08,0.479,5.04,0.479c5.521,0,10.802-2.159,14.642-6.239L231.76,162.96z
		 M145.84,209.76c-0.238,1.198-1.198,2.158-2.398,2.158H78.4c-1.438,0-2.398-0.96-2.398-2.397V193.92c0-0.721,0.24-1.438,0.96-1.92
		c0.722-0.479,1.438-0.721,2.16-0.479l64.8,15.601C145.12,207.359,145.84,208.561,145.84,209.76z M123.04,207.12L80.8,197.04v10.08
		H123.04z"/>
</g>
</svg>
