<?xml version="1.0" encoding="iso-8859-1"?>
<!-- Generator: Adobe Illustrator 19.0.0, SVG Export Plug-In . SVG Version: 6.00 Build 0)  -->
<svg version="1.1" id="Capa_1" xmlns="http://www.w3.org/2000/svg" xmlns:xlink="http://www.w3.org/1999/xlink" x="0px" y="0px"
	 viewBox="0 0 512 512" style="enable-background:new 0 0 512 512;" xml:space="preserve">
<g>
	<g>
		<path d="M504.295,452.742h-4.385v-17.137c0-31.366-25.511-56.886-56.868-56.886h-50.829c-74.038,0-134.273-60.259-134.273-134.327
			V62.472c0-9.648-14.994-9.664-14.994,0v181.92c0,15.509,2.378,30.472,6.784,44.546l-82.773,38.127l-0.182,0.084l-32.536,14.986
			c-3.768-3.403-7.695-6.577-11.766-9.509l-4.319-67.272c-0.265-4.131-3.812-7.271-7.962-7.001
			c-4.132,0.265-7.267,3.829-7.001,7.962l3.634,56.594c-19.328-10.246-40.987-15.692-63.422-15.692h-6.906V139.294H95.04
			l5.186,80.781c0.259,4.028,3.931,7.266,7.962,7.001c4.132-0.265,7.267-3.829,7.001-7.962l-5.124-79.82h9.632h14.129h27.64
			c20.161,0,36.563-16.402,36.563-36.563v-5.34c0-7.843-6.381-14.224-14.223-14.224h-50.22c-0.138-0.004-0.276-0.004-0.414,0
			h-14.476h-12.235l-3.755-58.489h135.287c6.352,0,4.036,8.723,8.666,11.431c4.223,2.471,9.61,0.134,11.014-4.48
			c3.437-11.302-9.64-21.945-19.679-21.945H41.45c-11,0-19.948,8.95-19.948,19.952v61.028v41.133v182.918v0.228
			c0,7.851-1.65,15.454-4.905,22.598c-4.151,9.108-6.256,18.803-6.256,28.816v70.196c-5.01,2.061-8.697,6.819-9.13,12.496
			l-1.107,14.503c-0.762,9.97,2.699,19.895,9.494,27.229c6.792,7.331,16.419,11.535,26.411,11.535h354.89
			c9.648,0,9.664-14.994,0-14.994H36.009c-5.917,0-11.391-2.391-15.413-6.732c-4.024-4.344-5.993-9.99-5.542-15.897l1.088-14.247
			h1.695h153.751h0.804c8.176,0,16.017,2.508,22.678,7.253c9.215,6.566,20.065,10.037,31.378,10.037h265.966h3.33
			c-3.258,11.299-13.687,19.586-26.015,19.586h-45.86c-9.648,0-9.664,14.994,0,14.994h45.858c13.307,0,26.075-6.518,33.937-17.243
			C508.002,479.157,519.679,452.742,504.295,452.742z M183.035,98.162v4.569c0,11.893-9.676,21.569-21.569,21.569h-3.732
			c4.252-8.129,4.262-18.02-0.006-26.139H183.035z M36.496,29.637c0-2.735,2.223-4.959,4.954-4.959h46.232l3.755,58.489h-54.94
			V29.637z M36.496,98.161h96.952c6.625,0.016,12.225,5.612,12.522,12.562c0.148,3.47-1.151,6.944-3.566,9.533
			c-2.329,2.497-5.412,3.93-8.692,4.043h-14.017v0.001h-83.2V98.161z M254.914,303.059c3.18,7.434,6.966,14.604,11.323,21.445
			l-47.193,22.56c0.139-4.492-0.83-8.977-2.891-13.124c-1.902-3.828-4.553-7.02-7.685-9.488L254.914,303.059z M185.503,335.032
			l0.606-0.279c6.253-2.879,13.554-0.305,16.618,5.862c1.521,3.062,1.746,6.529,0.632,9.763c-1.113,3.232-3.424,5.823-6.507,7.296
			l-11.536,5.515l-41.651,19.91c-10.466,5.003-22.789,3.21-31.394-4.567l-7.16-6.469L185.503,335.032z M25.335,435.452v-69.095
			c0-7.853,1.65-15.456,4.905-22.598c3.171-6.956,5.138-14.255,5.895-21.776l7.268,0.229c24.385,0,47.738,7.231,67.54,20.654
			c0.113,0.079,0.225,0.157,0.342,0.23c2.728,1.863,5.388,3.844,7.974,5.942l-21.077,9.708c-9.288,4.279-11.25,17.101-3.659,23.961
			l7.693,6.95c12.966,11.717,32.144,14.509,47.914,6.97l3.952-1.889c5.649,12.92,8.932,26.559,9.785,40.715H25.335z
			 M484.916,452.742H226.447c-8.176,0-16.017-2.508-22.678-7.254c-7.433-5.296-15.931-8.575-24.875-9.646
			c-0.84-16.556-4.614-32.504-11.273-47.577l22.887-10.941c0.004-0.002,0.009-0.003,0.013-0.005l10.758-5.144l73.832-35.294
			c27.362,34.594,69.683,56.831,117.102,56.831h50.829c23.09,0,41.874,18.792,41.874,41.892V452.742z"/>
	</g>
</g>
<g>
</g>
<g>
</g>
<g>
</g>
<g>
</g>
<g>
</g>
<g>
</g>
<g>
</g>
<g>
</g>
<g>
</g>
<g>
</g>
<g>
</g>
<g>
</g>
<g>
</g>
<g>
</g>
<g>
</g>
</svg>
