<?xml version="1.0" encoding="utf-8"?>
<!-- Generator: Adobe Illustrator 16.0.0, SVG Export Plug-In . SVG Version: 6.00 Build 0)  -->
<!DOCTYPE svg PUBLIC "-//W3C//DTD SVG 1.0//EN" "http://www.w3.org/TR/2001/REC-SVG-20010904/DTD/svg10.dtd">
<svg version="1.0" id="Capa_1" xmlns="http://www.w3.org/2000/svg" xmlns:xlink="http://www.w3.org/1999/xlink" x="0px" y="0px"
	 width="300px" height="300px" viewBox="0 0 300 300" enable-background="new 0 0 300 300" xml:space="preserve">
<g>
	<g>
		<path d="M295.486,265.278h-2.569v-10.041c0-18.378-14.948-33.331-33.321-33.331h-29.782c-43.382,0-78.676-35.309-78.676-78.708
			V36.604c0-5.653-8.786-5.662-8.786,0v106.594c0,9.087,1.394,17.854,3.976,26.102l-48.5,22.34l-0.106,0.05l-19.064,8.78
			c-2.208-1.994-4.509-3.854-6.894-5.571l-2.531-39.418c-0.155-2.42-2.233-4.26-4.665-4.102c-2.421,0.155-4.258,2.243-4.103,4.665
			l2.13,33.161c-11.325-6.004-24.016-9.195-37.161-9.195h-4.047V81.618h34.303l3.038,47.333c0.152,2.36,2.304,4.257,4.666,4.102
			c2.421-0.155,4.258-2.244,4.102-4.665l-3.002-46.77h5.644h8.278h16.195c11.813,0,21.424-9.611,21.424-21.424v-3.129
			c0-4.595-3.738-8.334-8.334-8.334H78.273c-0.08-0.002-0.161-0.002-0.242,0h-8.482h-7.169l-2.2-34.271h79.271
			c3.722,0,2.364,5.111,5.077,6.698c2.475,1.448,5.631,0.079,6.454-2.625c2.014-6.623-5.648-12.858-11.531-12.858H24.287
			c-6.445,0-11.688,5.244-11.688,11.69v35.759v24.101v107.179v0.134c0,4.6-0.967,9.055-2.874,13.24
			c-2.433,5.338-3.666,11.018-3.666,16.885v41.131c-2.936,1.207-5.096,3.995-5.35,7.322l-0.648,8.497
			c-0.446,5.842,1.582,11.657,5.563,15.954c3.979,4.296,9.62,6.76,15.475,6.76h207.943c5.653,0,5.663-8.786,0-8.786H21.099
			c-3.467,0-6.674-1.401-9.031-3.944c-2.357-2.545-3.511-5.854-3.247-9.314l0.638-8.348h0.993h90.089h0.471
			c4.791,0,9.385,1.469,13.288,4.25c5.399,3.847,11.757,5.881,18.386,5.881h155.839h1.951c-1.909,6.62-8.02,11.476-15.243,11.476
			h-26.871c-5.653,0-5.662,8.786,0,8.786h26.87c7.797,0,15.278-3.819,19.885-10.104
			C297.657,280.756,304.499,265.278,295.486,265.278z M107.247,57.517v2.677c0,6.969-5.67,12.638-12.639,12.638h-2.187
			c2.491-4.763,2.497-10.559-0.003-15.316L107.247,57.517L107.247,57.517z M21.384,17.365c0-1.603,1.303-2.905,2.903-2.905h27.089
			l2.2,34.271H21.385L21.384,17.365L21.384,17.365z M21.384,57.516h56.809c3.882,0.009,7.163,3.289,7.337,7.361
			c0.087,2.033-0.675,4.068-2.09,5.585c-1.364,1.463-3.171,2.303-5.093,2.369h-8.213v0h-48.75V57.516L21.384,57.516z
			 M149.364,177.574c1.863,4.355,4.082,8.557,6.635,12.564l-27.652,13.219c0.082-2.632-0.486-5.26-1.693-7.689
			c-1.115-2.243-2.668-4.113-4.503-5.56L149.364,177.574z M108.694,196.308l0.354-0.163c3.664-1.688,7.942-0.179,9.737,3.435
			c0.892,1.794,1.023,3.825,0.37,5.721c-0.652,1.894-2.006,3.411-3.813,4.274l-6.76,3.232l-24.404,11.666
			c-6.133,2.931-13.354,1.881-18.396-2.677l-4.195-3.79L108.694,196.308z M14.845,255.147v-40.485c0-4.602,0.967-9.057,2.874-13.24
			c1.857-4.076,3.011-8.354,3.454-12.76l4.259,0.134c14.288,0,27.971,4.237,39.574,12.103c0.065,0.046,0.132,0.092,0.2,0.135
			c1.599,1.092,3.157,2.252,4.672,3.481l-12.35,5.688c-5.442,2.507-6.592,10.02-2.144,14.039l4.507,4.072
			c7.598,6.865,18.835,8.502,28.075,4.084l2.315-1.106c3.31,7.57,5.233,15.562,5.733,23.856L14.845,255.147L14.845,255.147z
			 M284.13,265.278H132.684c-4.791,0-9.385-1.47-13.288-4.25c-4.355-3.104-9.334-5.024-14.575-5.652
			c-0.492-9.7-2.703-19.045-6.605-27.877l13.411-6.411c0.002-0.001,0.005-0.002,0.007-0.002l6.304-3.015l43.261-20.681
			c16.033,20.271,40.83,33.3,68.615,33.3h29.782c13.529,0,24.535,11.011,24.535,24.546V265.278L284.13,265.278z"/>
	</g>
</g>
</svg>
