<?xml version="1.0" encoding="utf-8"?>
<!-- Generator: Adobe Illustrator 16.0.0, SVG Export Plug-In . SVG Version: 6.00 Build 0)  -->
<!DOCTYPE svg PUBLIC "-//W3C//DTD SVG 1.0//EN" "http://www.w3.org/TR/2001/REC-SVG-20010904/DTD/svg10.dtd">
<svg version="1.0" id="Layer_1" xmlns="http://www.w3.org/2000/svg" xmlns:xlink="http://www.w3.org/1999/xlink" x="0px" y="0px"
	 width="512px" height="512px" viewBox="0 0 512 512" enable-background="new 0 0 512 512" xml:space="preserve">
<g id="Out_line">
	<path d="M455.906,340.08l33.307-122.123c4.584-16.888,5.193-34.606,1.783-51.77c-2.528-12.551-11.57-22.794-23.711-26.858
		c-0.803-0.268-1.616-0.5-2.436-0.709l3.582-25.07c2.497-17.614-1.125-35.552-10.262-50.816
		C449.673,48.664,434.453,40.047,418.018,40c-4.17,0.002-8.303,0.795-12.178,2.338l-7.998-11.996
		c-5.965-8.969-16.026-14.354-26.797-14.342h-7.117c-16.256,0-29.963,12.115-31.961,28.248c-2.368-1.57-4.87-2.929-7.477-4.063
		c-15.478-6.729-33.479,0.362-40.209,15.84c-2.686,6.175-3.256,13.064-1.622,19.597l2.864,11.457
		c-9.434-4.65-20.63-3.933-29.392,1.886c-0.245,0.163-0.487,0.329-0.727,0.499l9.27,13.042c0.108-0.077,0.22-0.153,0.332-0.229
		c4.369-2.902,10.025-3.004,14.497-0.262c3.007,1.851,5.698,4.169,7.973,6.869c1.409,1.672,3.442,2.694,5.625,2.829l4.406,0.271
		c4.409,0.271,8.204-3.083,8.477-7.492c0.05-0.817-0.025-1.639-0.225-2.434l-7.578-30.317c-1.951-7.801,2.791-15.705,10.592-17.656
		c3.112-0.778,6.395-0.507,9.338,0.772c9.812,4.27,16.913,13.069,19.014,23.562c4.566,22.86,6.869,46.114,6.875,69.427V168
		c0,4.419,3.581,8,8,8c4.418,0,8-3.581,8-8v-20.153c-0.003-14.328-0.837-28.644-2.496-42.875c-1.162-9.964-2.726-19.86-4.689-29.69
		c-0.008-0.032-0.014-0.063-0.02-0.095l-4.76-23.8c-1.755-8.777,3.937-17.315,12.714-19.071c1.047-0.21,2.111-0.315,3.179-0.315
		h7.117c5.42-0.005,10.482,2.704,13.484,7.218l8.309,12.461c-6.87,8.104-9.413,19.02-6.834,29.324l5.559,22.229
		c5.131,20.545,2.748,42.248-6.719,61.191c-1.978,3.95-0.378,8.757,3.573,10.734c3.95,1.978,8.757,0.378,10.734-3.572
		c0.001-0.003,0.002-0.005,0.003-0.007c11.175-22.359,13.986-47.977,7.93-72.228l-5.559-22.229
		c-2.277-9.107,3.26-18.337,12.367-20.614c1.35-0.337,2.734-0.508,4.125-0.508c10.819,0.031,20.839,5.704,26.432,14.965
		c7.25,12.112,10.124,26.346,8.143,40.322l-3.853,26.964c-1.362,0.28-2.706,0.64-4.025,1.078
		c-11.838,3.959-21.471,12.705-26.551,24.105l-24.87,55.959l-27.016,27.016c-2.758,2.756-5.177,5.83-7.206,9.159
		c-19.134-1.807-37.281-9.326-52.085-21.582l-10.215,12.315c16.076,13.31,35.556,21.855,56.236,24.671
		c-0.67,3.26-1.008,6.578-1.008,9.905V392h-49.441l-14.81-74.05l-15.689,3.138l15.868,79.344l-7.895,86.845
		c-0.4,4.4,2.843,8.291,7.242,8.691c0.241,0.021,0.482,0.032,0.725,0.032h160c4.418,0,7.999-3.581,7.999-8
		c0-0.241-0.011-0.483-0.032-0.724L448,399.636v-43.329C451.628,351.441,454.31,345.936,455.906,340.08z M368,280.878
		c-0.024-8.689,3.43-17.027,9.592-23.155l28.064-28.065c0.695-0.694,1.255-1.511,1.654-2.408l25.473-57.315
		c3.252-7.296,9.416-12.893,16.99-15.426c10.316-3.438,21.467,2.138,24.905,12.453c0.258,0.774,0.468,1.564,0.628,2.364
		c2.926,14.728,2.402,29.932-1.529,44.423L440.471,335.87c-4.76,17.448-22.762,27.735-40.21,22.977
		c-5.498-1.5-10.509-4.408-14.538-8.438l-8.131-8.131c-6.162-6.128-9.616-14.466-9.592-23.156V280.878z M368,355.314l6.408,6.408
		c15.22,15.24,38.646,18.664,57.592,8.416V392h-64V355.314z M296.761,480l6.544-72h129.389l3.637,40H320v16h117.785l1.453,16
		H296.761z"/>
	<path d="M240,399.637v-29.994l4.989-11.643c28.425-66.247,45.382-136.845,50.146-208.774c0.898-13.482-9.302-25.141-22.784-26.04
		c-8.74-0.583-17.126,3.552-21.984,10.841l-16.391,24.586l6-77.999c0.056-0.73,0.012-1.465-0.132-2.183l-5.308-26.538
		c-3.427-17.142-20.1-28.26-37.24-24.833c-2.711,0.541-5.338,1.436-7.815,2.659c-10.854-14.896-31.729-18.173-46.625-7.319
		c-1.4,1.021-2.72,2.148-3.944,3.374c-7.898,7.911-14.834,16.729-20.661,26.269c-2.999-1.007-6.166-1.42-9.322-1.214
		c-6.576,0.42-12.687,3.539-16.883,8.619c-10.439,12.521-19.483,26.141-26.971,40.62c-7.92-0.235-15.372,3.742-19.585,10.453
		l-16.408,26.252c-12.386,19.817-16.181,43.819-10.512,66.491L56,352.985v46.652l-7.967,87.639c-0.4,4.4,2.843,8.291,7.242,8.691
		C55.517,495.989,55.758,496,56,496h184c4.418,0,8-3.581,7.999-8c0-0.241-0.011-0.483-0.032-0.724L240,399.637z M263.68,142.902
		c2.593-3.891,7.849-4.942,11.739-2.349c2.522,1.681,3.953,4.583,3.752,7.607c-4.645,70.126-21.177,138.952-48.889,203.537
		l-2.294,5.352l-2.671-1.335l2.656-10.626c12.706-51.144,14.44-104.398,5.088-156.261L263.68,142.902z M34.092,199.384
		c-4.614-18.457-1.524-37.996,8.559-54.13l9.711-15.537c-0.297,0.855-0.603,1.707-0.889,2.567
		c-2.302,6.899-3.475,14.126-3.473,21.399V200c0,4.419,3.581,8,8,8c4.418,0,8-3.581,8-8v-46.316
		c-0.002-5.554,0.894-11.071,2.652-16.34c8.216-24.711,20.999-47.659,37.685-67.651c1.406-1.707,3.455-2.756,5.662-2.898
		c0.123-0.009,0.246-0.004,0.37-0.007c-6.139,13.274-10.193,27.415-12.021,41.925l-10.287,82.296
		c-0.548,4.385,2.562,8.383,6.946,8.931c4.384,0.548,8.383-2.562,8.931-6.946l10.287-82.296
		c3.525-27.844,16.188-53.731,36.001-73.608c6.78-6.782,17.773-6.783,24.556-0.004c0.778,0.778,1.48,1.629,2.098,2.539
		c-6.075,6.772-10.102,15.13-11.611,24.102l-21.16,126.96l15.783,2.631l21.16-126.961c1.461-8.685,6.438-16.383,13.759-21.28
		c7.194-4.796,16.915-2.853,21.711,4.342c1.135,1.702,1.925,3.609,2.326,5.615l5.091,25.456l-7.915,102.899
		c-0.056,0.729-0.012,1.464,0.132,2.183c10.229,51.521,8.964,104.663-3.703,155.639l-4.213,16.852
		c-0.91,3.638,0.828,7.419,4.183,9.096L224,372.944V392H72v-32h56v-16H70.245L34.092,199.384z M71.305,408h91.768l-44.812,10.544
		c-21.088,4.948-34.172,26.054-29.224,47.142c1.213,5.171,3.463,10.04,6.614,14.314H64.761L71.305,408z M127.25,480
		c-12.841,0.001-23.25-10.409-23.25-23.249c0-10.79,7.422-20.161,17.925-22.632l102.941-24.223L231.24,480H127.25z"/>
</g>
</svg>
