<svg id="Capa_1" enable-background="new 0 0 512 512" height="512" viewBox="0 0 512 512" width="512" xmlns="http://www.w3.org/2000/svg"><g><g><path d="m119.613 363.61 44.677 15.094c1.837.62 3.732.935 5.633.935 5.954 0 13.325-3.444 16.366-11.136l17.188-43.448c6.535-16.514 22.233-27.185 39.992-27.185h25.061c17.759 0 33.457 10.672 39.992 27.187l17.188 43.448c2.677 6.764 9.1 11.134 16.364 11.134 1.902 0 3.798-.314 5.636-.935l85.649-28.936c7.159-2.418 11.969-9.12 11.969-16.676v-131.415c0-14.215-8.101-27.438-20.637-33.688-70.655-35.226-167.72-35.634-168.692-35.634s-98.037.408-168.692 35.634c-12.536 6.249-20.637 19.472-20.637 33.688v131.415c0 7.556 4.809 14.257 11.967 16.676l7.743 2.616c3.925 1.327 8.18-.781 9.506-4.705s-.781-8.18-4.705-9.506l-7.742-2.615c-1.058-.358-1.769-1.349-1.769-2.466v-131.415c0-8.576 4.839-16.53 12.329-20.263 67.299-33.553 161.063-34.057 161.997-34.058.939.001 94.704.505 162.003 34.058 7.489 3.733 12.329 11.687 12.329 20.263v131.415c0 1.117-.711 2.108-1.77 2.465l-85.648 28.935c-1.459.493-2.749-.237-3.253-1.506l-17.188-43.448c-8.814-22.275-29.987-36.668-53.94-36.668h-25.059c-23.953 0-45.125 14.392-53.939 36.667l-17.189 43.45c-.636 1.608-2.4 1.653-2.418 1.653-.266 0-.547-.049-.833-.146l-44.676-15.093c-3.926-1.328-8.181.781-9.506 4.705-1.327 3.923.779 8.178 4.704 9.504z"/><path d="m494.398 194.986h-19.091c-2.231-23.258-16.011-43.608-37.093-54.118-13.388-6.675-28.387-12.634-44.581-17.711-3.952-1.24-8.161.959-9.4 4.912s.96 8.161 4.912 9.4c15.439 4.841 29.696 10.501 42.376 16.823 17.957 8.953 29.112 27.109 29.112 47.385v131.415c0 14.126-8.991 26.655-22.374 31.176l-85.65 28.936c-16.616 5.612-34.681-2.765-41.132-19.07l-17.187-43.446c-4.208-10.638-14.319-17.512-25.761-17.512h-25.059c-11.441 0-21.553 6.874-25.76 17.512l-17.188 43.446c-6.45 16.306-24.515 24.685-41.132 19.07l-85.65-28.936c-13.383-4.521-22.374-17.049-22.374-31.176v-131.415c0-20.275 11.155-38.432 29.112-47.385 73.849-36.818 171.404-37.241 175.521-37.241 1.925 0 47.735.132 99.884 11.619 4.053.896 8.046-1.667 8.938-5.711.892-4.045-1.666-8.047-5.711-8.938-53.725-11.834-101.119-11.97-103.11-11.97-4.261 0-105.24.441-182.215 38.817-21.081 10.51-34.861 30.859-37.093 54.118h-19.09c-9.706 0-17.602 7.896-17.602 17.601v101.016c0 9.706 7.896 17.602 17.602 17.602h18.765v1.887c0 20.565 13.09 38.805 32.573 45.387l85.65 28.936c24.182 8.171 50.488-4.024 59.88-27.764l17.188-43.446c1.929-4.878 6.565-8.03 11.812-8.03h25.061c5.246 0 9.883 3.152 11.813 8.03l17.188 43.446c7.417 18.751 25.384 30.299 44.526 30.299 5.093 0 10.271-.818 15.354-2.535l85.65-28.936c19.483-6.582 32.573-24.821 32.573-45.387v-1.887h18.765c9.705 0 17.602-7.896 17.602-17.602v-101.016c-.002-9.705-7.898-17.601-17.604-17.601zm-476.796 121.219c-1.435 0-2.602-1.167-2.602-2.602v-101.016c0-1.435 1.167-2.602 2.602-2.602h18.765v106.219h-18.765zm479.398-2.602c0 1.435-1.167 2.602-2.602 2.602h-18.765v-106.219h18.765c1.435 0 2.602 1.167 2.602 2.602z"/><path d="m115.904 241.805c1.919 0 3.839-.732 5.304-2.197l21.429-21.429c2.929-2.929 2.929-7.678 0-10.606-2.93-2.929-7.678-2.929-10.607 0l-21.429 21.429c-2.929 2.929-2.929 7.678 0 10.606 1.464 1.465 3.384 2.197 5.303 2.197z"/><path d="m117.355 193.721c-2.93-2.929-7.678-2.929-10.607 0l-10 10c-2.929 2.929-2.929 7.678 0 10.606 1.465 1.464 3.385 2.197 5.304 2.197s3.839-.732 5.304-2.197l10-10c2.928-2.928 2.928-7.677-.001-10.606z"/></g></g></svg>