<?xml version="1.0" encoding="utf-8"?>
<!-- Generator: Adobe Illustrator 16.0.0, SVG Export Plug-In . SVG Version: 6.00 Build 0)  -->
<!DOCTYPE svg PUBLIC "-//W3C//DTD SVG 1.0//EN" "http://www.w3.org/TR/2001/REC-SVG-20010904/DTD/svg10.dtd">
<svg version="1.0" id="Capa_1" xmlns="http://www.w3.org/2000/svg" xmlns:xlink="http://www.w3.org/1999/xlink" x="0px" y="0px"
	 width="512px" height="512px" viewBox="0 0 512 512" enable-background="new 0 0 512 512" xml:space="preserve">
<g>
	<g>
		<path d="M119.613,363.61l44.678,15.094c1.837,0.62,3.731,0.936,5.633,0.936c5.954,0,13.325-3.444,16.366-11.137l17.188-43.447
			c6.535-16.515,22.233-27.186,39.992-27.186h25.061c17.76,0,33.457,10.672,39.992,27.188l17.188,43.447
			c2.677,6.765,9.1,11.135,16.363,11.135c1.902,0,3.798-0.314,5.637-0.936l85.648-28.936c7.159-2.418,11.969-9.12,11.969-16.677
			V201.677c0-14.216-8.101-27.438-20.637-33.688c-70.655-35.226-167.72-35.634-168.691-35.634c-0.973,0-98.037,0.408-168.692,35.634
			c-12.536,6.249-20.637,19.472-20.637,33.688v131.414c0,7.557,4.809,14.258,11.967,16.677l7.743,2.615
			c3.925,1.327,8.18-0.78,9.506-4.704c1.326-3.925-0.781-8.181-4.705-9.507l-7.742-2.614c-1.058-0.358-1.769-1.35-1.769-2.467
			V201.677c0-8.576,4.839-16.53,12.329-20.264c67.299-33.553,161.063-34.057,161.997-34.058
			c0.938,0.001,94.703,0.505,162.002,34.058c7.489,3.733,12.329,11.688,12.329,20.264v131.414c0,1.117-0.711,2.108-1.77,2.466
			l-85.648,28.935c-1.459,0.493-2.749-0.237-3.253-1.506l-17.188-43.448c-8.814-22.274-29.987-36.668-53.94-36.668H243.47
			c-23.953,0-45.125,14.393-53.938,36.667l-17.189,43.45c-0.636,1.608-2.4,1.653-2.418,1.653c-0.266,0-0.547-0.05-0.833-0.146
			l-44.676-15.093c-3.926-1.328-8.182,0.781-9.506,4.705C113.582,358.029,115.688,362.284,119.613,363.61L119.613,363.61z"/>
		<path d="M494.398,194.986h-19.091c-2.231-23.258-16.011-43.608-37.093-54.118c-13.389-6.675-28.388-12.634-44.581-17.711
			c-3.952-1.24-8.161,0.959-9.4,4.912s0.96,8.161,4.912,9.4c15.439,4.841,29.696,10.501,42.376,16.822
			c17.957,8.953,29.112,27.109,29.112,47.386v131.414c0,14.126-8.991,26.655-22.374,31.177l-85.65,28.936
			c-16.616,5.612-34.681-2.765-41.132-19.07l-17.187-43.445c-4.208-10.639-14.319-17.513-25.762-17.513H243.47
			c-11.441,0-21.553,6.874-25.76,17.513l-17.188,43.445c-6.449,16.307-24.515,24.686-41.132,19.07L73.74,364.268
			c-13.384-4.521-22.374-17.05-22.374-31.177V201.677c0-20.275,11.154-38.433,29.111-47.386
			c73.85-36.817,171.404-37.241,175.521-37.241c1.925,0,47.734,0.133,99.884,11.619c4.053,0.896,8.046-1.667,8.938-5.711
			c0.893-4.045-1.666-8.047-5.711-8.938C305.385,102.187,257.991,102.051,256,102.051c-4.261,0-105.24,0.441-182.215,38.817
			c-21.081,10.51-34.861,30.859-37.094,54.118h-19.09C7.896,194.986,0,202.882,0,212.587v101.017
			c0,9.706,7.896,17.602,17.602,17.602h18.766v1.887c0,20.565,13.09,38.806,32.572,45.388l85.65,28.936
			c24.182,8.171,50.488-4.023,59.88-27.764l17.188-43.446c1.929-4.878,6.564-8.03,11.812-8.03h25.062
			c5.245,0,9.883,3.152,11.813,8.03l17.188,43.446c7.416,18.751,25.384,30.299,44.525,30.299c5.093,0,10.271-0.818,15.354-2.535
			l85.65-28.936c19.483-6.582,32.573-24.821,32.573-45.388v-1.887H494.4c9.705,0,17.603-7.896,17.603-17.602V212.587
			C512,202.882,504.104,194.986,494.398,194.986L494.398,194.986z M17.602,316.205c-1.435,0-2.602-1.167-2.602-2.602V212.587
			c0-1.435,1.167-2.602,2.602-2.602h18.766v106.219L17.602,316.205L17.602,316.205z M497,313.603c0,1.435-1.167,2.602-2.603,2.602
			h-18.765V209.986h18.765c1.436,0,2.603,1.167,2.603,2.602V313.603z"/>
		<path d="M115.904,241.805c1.919,0,3.84-0.732,5.305-2.197l21.429-21.429c2.929-2.93,2.929-7.679,0-10.606
			c-2.93-2.929-7.678-2.929-10.607,0l-21.429,21.429c-2.929,2.93-2.929,7.679,0,10.606
			C112.065,241.073,113.985,241.805,115.904,241.805z"/>
		<path d="M117.355,193.721c-2.93-2.93-7.678-2.93-10.606,0l-10,10c-2.93,2.929-2.93,7.678,0,10.605
			c1.465,1.464,3.385,2.197,5.304,2.197s3.839-0.732,5.304-2.197l10-10C120.284,201.399,120.284,196.65,117.355,193.721z"/>
	</g>
</g>
</svg>
