<?xml version="1.0" encoding="utf-8"?>
<!-- Generator: Adobe Illustrator 16.0.0, SVG Export Plug-In . SVG Version: 6.00 Build 0)  -->
<!DOCTYPE svg PUBLIC "-//W3C//DTD SVG 1.0//EN" "http://www.w3.org/TR/2001/REC-SVG-20010904/DTD/svg10.dtd">
<svg version="1.0" id="Capa_1" xmlns="http://www.w3.org/2000/svg" xmlns:xlink="http://www.w3.org/1999/xlink" x="0px" y="0px"
	 width="512px" height="512px" viewBox="0 0 512 512" enable-background="new 0 0 512 512" xml:space="preserve">
<g>
	<path d="M436.308,57.918C388.065,20.569,324.03,0,256,0C187.97,0,123.935,20.569,75.692,57.918C26.881,95.708,0,146.126,0,199.887
		v79.315c0,18.229,10.149,34.571,26.488,42.651l19.607,9.695c17.748,8.776,37.125,13.24,56.615,13.239
		c0.877,0,1.754-0.024,2.631-0.043l231.337,143.805c0.045,12.938,10.582,23.45,23.53,23.45h16.031
		c12.977,0,23.533-10.558,23.533-23.532v-24.048c0-7.035-3.106-13.354-8.016-17.67V247.469h96.709
		c12.976,0,23.532-10.558,23.532-23.532v-24.048C512,146.126,485.118,95.708,436.308,57.918L436.308,57.918z M150.934,335.332
		l188.863,117.401c-1.981,3.446-3.12,7.436-3.12,11.688v6.467L129.296,341.974c2.169-0.461,4.333-0.964,6.485-1.54
		C140.96,339.046,146.017,337.335,150.934,335.332L150.934,335.332z M384.774,488.469c0,4.705-3.828,8.532-8.533,8.532h-16.031
		c-4.705,0-8.532-3.828-8.532-8.532v-24.048c0-4.705,3.828-8.532,8.532-8.532h16.031c4.705,0,8.533,3.828,8.533,8.532V488.469z
		 M376.758,440.9c-0.172-0.004-0.344-0.013-0.518-0.013h-16.031c-0.174,0-0.345,0.009-0.517,0.013V296.078
		c0-4.142-3.357-7.5-7.5-7.5c-4.142,0-7.5,3.358-7.5,7.5v142.037l-177.88-110.574c16.785-9.734,31.262-23.235,42.196-39.638
		l7.766-11.648c12.018-18.024,32.125-28.787,53.788-28.787h74.131v16.549c0,4.142,3.358,7.5,7.5,7.5c4.143,0,7.5-3.358,7.5-7.5
		v-16.549h17.065L376.758,440.9L376.758,440.9z M497,223.936c0,4.705-3.828,8.532-8.532,8.532H270.562
		c-26.689,0-51.464,13.258-66.269,35.466l-7.767,11.647c-21.489,32.236-57.311,50.153-94.035,50.15
		c-16.822-0.001-33.841-3.762-49.747-11.627l-19.607-9.696C21.95,302.875,15,291.685,15,279.204v-79.315C15,97.94,123.112,15,256,15
		c132.888,0,241,82.94,241,184.888V223.936z"/>
	<path d="M413.507,80.495c-42.162-31.23-98.1-48.431-157.507-48.431c-40.733,0-80.604,8.253-115.299,23.867
		c-3.777,1.699-5.462,6.14-3.762,9.917c1.7,3.776,6.14,5.461,9.917,3.761C179.632,54.861,217.373,47.064,256,47.064
		c115.207,0,208.936,68.556,208.936,152.823c0,4.142,3.358,7.5,7.5,7.5s7.5-3.358,7.5-7.5
		C479.936,154.627,456.344,112.226,413.507,80.495L413.507,80.495z"/>
	<path d="M87.661,152.307c-17.396,0-31.549,14.151-31.549,31.548c0,17.396,14.152,31.548,31.549,31.548
		c17.396,0,31.548-14.152,31.548-31.548C119.209,166.459,105.057,152.307,87.661,152.307z M87.661,200.403
		c-9.125,0-16.549-7.423-16.549-16.548s7.424-16.548,16.549-16.548s16.548,7.423,16.548,16.548S96.786,200.403,87.661,200.403z"/>
</g>
</svg>
