<?xml version="1.0" encoding="utf-8"?>
<!-- Generator: Adobe Illustrator 16.0.0, SVG Export Plug-In . SVG Version: 6.00 Build 0)  -->
<!DOCTYPE svg PUBLIC "-//W3C//DTD SVG 1.0//EN" "http://www.w3.org/TR/2001/REC-SVG-20010904/DTD/svg10.dtd">
<svg version="1.0" id="Capa_1" xmlns="http://www.w3.org/2000/svg" xmlns:xlink="http://www.w3.org/1999/xlink" x="0px" y="0px"
	 width="512px" height="512px" viewBox="0 0 512 512" enable-background="new 0 0 512 512" xml:space="preserve">
<g>
	<path d="M460.986,168.306c-0.853-4.059-4.831-6.659-8.891-5.806c-4.059,0.853-6.657,4.832-5.806,8.891
		c3.736,17.795,5.553,37.533,5.553,60.313l-0.219,58.062c-0.377-0.011-0.754-0.037-1.131-0.037
		c-21.189,0-38.428,17.238-38.428,38.428c0,21.188,17.238,38.429,38.428,38.429c0.281,0,0.562-0.021,0.842-0.028l-0.316,84.091
		l-64.427,7.957l-1.417-233.702c-0.016-4.138-3.373-7.481-7.508-7.481c-0.009,0-0.019,0-0.026,0
		c-4.146,0.014-7.496,3.388-7.482,7.534l0.686,198.465H263.084V43.173c21.406-0.277,41.443-1.729,57.067-4.168
		c7.18-1.121,13.049-2.374,17.743-3.822v26.032c0,7.784,6.333,14.117,14.117,14.117c6.789,0,18.767,3.427,33.727,9.648
		c17.929,7.457,33.044,20.74,42.561,37.402c3.646,6.387,6.905,13.285,9.685,20.504c1.148,2.981,3.992,4.812,7.009,4.812
		c0.896,0,1.809-0.162,2.695-0.503c3.869-1.49,5.799-5.835,4.309-9.705c-3.05-7.923-6.637-15.511-10.658-22.555
		c-11.154-19.531-28.853-35.094-49.833-43.819c-16.663-6.931-29.641-10.557-38.595-10.788V23.8c0-0.101-0.011-0.198-0.015-0.298
		c0.107-0.61,0.168-1.238,0.168-1.889c0-8.704-9.535-13.742-32.912-17.392C302.714,1.499,279.781,0,255.576,0
		c-24.149,0-46.911,1.5-64.094,4.224c-23.009,3.648-32.394,8.686-32.394,17.39c0,0.335,0.02,0.664,0.047,0.988
		c-0.028,0.27-0.047,0.542-0.047,0.818v36.907c-8.953,0.23-21.931,3.857-38.595,10.788c-20.981,8.726-38.68,24.287-49.833,43.819
		c-17.173,30.069-25.52,68.273-25.52,116.799v34.934c0,4.146,3.361,7.508,7.508,7.508s7.508-3.361,7.508-7.508v-34.934
		c0-45.843,7.701-81.612,23.544-109.352c9.515-16.662,24.63-29.945,42.559-37.402c14.96-6.222,26.938-9.648,33.728-9.648
		c7.784,0,14.117-6.332,14.117-14.117V35.207c4.605,1.438,10.354,2.682,17.378,3.795c15.39,2.439,35.258,3.893,56.585,4.171v380.248
		H141.13V224.929c0-4.146-3.361-7.508-7.508-7.508s-7.508,3.361-7.508,7.508l-0.706,233.663l-65.251-8.16V298.023
		c0-4.146-3.361-7.508-7.508-7.508s-7.508,3.361-7.508,7.508v189.588c0,7.706,6.094,14.016,13.717,14.363L125.434,512h0.563
		c7.927,0,14.378-6.449,14.378-14.378v-23.043h230.483v23.043c0,7.929,6.449,14.378,14.378,14.378h0.563l66.496-10.025
		c7.621-0.348,13.715-6.657,13.715-14.363l0.849-255.878C466.858,207.876,464.937,187.127,460.986,168.306L460.986,168.306z
		 M450.992,351.563c-0.167,0.003-0.333,0.005-0.5,0.005c-12.909,0-23.412-10.502-23.412-23.412
		c0-12.909,10.502-23.411,23.412-23.411c0.167,0,0.333,0.002,0.5,0.005V351.563z M181.075,21.613
		c12.206-3.163,37.318-6.597,74.501-6.597c37.468,0,62.842,3.426,75.268,6.597c-12.424,3.17-37.8,6.597-75.268,6.597
		C218.394,28.209,193.281,24.776,181.075,21.613z M140.942,438.437h230.117l0.535,21.126H140.405L140.942,438.437z M60.159,486.984
		v-21.418l65.199,8.153v23.085L60.159,486.984z M385.872,496.804v-22.979l65.12-8.044v21.205L385.872,496.804z"/>
	<path d="M352.063,185.87c0-4.146-3.36-7.508-7.508-7.508h-44.972c-4.146,0-7.508,3.361-7.508,7.508s3.361,7.508,7.508,7.508h44.972
		C348.702,193.378,352.063,190.016,352.063,185.87z"/>
	<path d="M180.564,388.42l35.146-35.146c2.933-2.933,2.933-7.687,0-10.617c-2.932-2.933-7.686-2.933-10.618,0l-35.146,35.146
		c-2.932,2.932-2.932,7.686,0,10.618c1.466,1.466,3.388,2.199,5.309,2.199C177.177,390.618,179.098,389.885,180.564,388.42z"/>
	<path d="M299.448,342.656c-2.933,2.932-2.933,7.685-0.001,10.617l35.145,35.146c1.467,1.467,3.388,2.199,5.31,2.199
		c1.921,0,3.843-0.732,5.309-2.199c2.933-2.933,2.933-7.686,0.001-10.618l-35.146-35.146
		C307.134,339.723,302.379,339.723,299.448,342.656z"/>
</g>
</svg>
