<svg id="Layer_5" enable-background="new 0 0 64 64" height="512" viewBox="0 0 64 64" width="512" xmlns="http://www.w3.org/2000/svg"><g><path d="m50.111 10.316-8.349-2.783c.152-.488.238-1.002.238-1.533v-5h-20v5c0 .531.086 1.046.237 1.534l-8.349 2.783c-5.316 1.772-8.888 6.728-8.888 12.332v31.351c0 1.654 1.346 3 3 3h7.223c.332 1.391 1.034 2.67 2.07 3.707 1.478 1.479 3.444 2.293 5.536 2.293h18.343c2.091 0 4.057-.814 5.536-2.293 1.037-1.037 1.738-2.316 2.07-3.707h7.222c1.654 0 3-1.346 3-3v-31.351c0-5.604-3.572-10.56-8.889-12.333zm-.632 1.898c1.344.448 2.552 1.14 3.591 2.011l-2.295 2.805c-2.435 2.974-3.775 6.73-3.775 10.574v6.396h-12v-8.026c1.207-.914 2-2.348 2-3.974v-.151c0-.703-.145-1.386-.431-2.031l-3.208-7.217 5.109-1.703c.928-.309 1.71-.872 2.309-1.584zm-23.949-5.317 6.47 2.157 6.47-2.157c.564-.188 1.073-.471 1.524-.82-.033 1.331-.888 2.5-2.156 2.922l-5.838 1.947-5.838-1.946c-1.268-.423-2.123-1.592-2.156-2.922.451.349.96.632 1.524.819zm-1.367-3.897h15.674c-.308.926-1.036 1.679-2 2l-5.837 1.946-5.838-1.946c-.964-.321-1.691-1.074-1.999-2zm10.578 17.63c.172.387.259.797.259 1.219v.151c0 1.654-1.346 3-3 3s-3-1.346-3-3v-.151c0-.422.087-.832.258-1.218l2.742-6.169zm-3.741 6.269c.323.066.658.101 1 .101s.677-.035 1-.101v34.101h-2zm-16.479-14.685 8.7-2.9c.599.712 1.381 1.275 2.308 1.584l5.109 1.703-3.208 7.218c-.285.643-.43 1.327-.43 2.03v.151c0 1.627.793 3.061 2 3.974v8.026h-12v-6.396c0-3.844-1.34-7.599-3.774-10.574l-2.295-2.805c1.039-.871 2.247-1.563 3.59-2.011zm-7.521 10.435c0-2.622.927-5.073 2.514-6.997l2.164 2.645c2.142 2.618 3.322 5.923 3.322 9.307v14.262c-.765-.642-1.662-1.167-2.554-1.68-2.677-1.539-5.446-3.13-5.446-8.186zm4.449 19.27c2.268 1.304 3.551 2.136 3.551 4.081v3h-8v-10.521c1.273 1.607 2.954 2.581 4.449 3.44zm-4.449 12.081v-3h8v4h-7c-.551 0-1-.449-1-1zm11.707 5.293c-1.101-1.101-1.707-2.564-1.707-4.122v-19.171h12v25h-6.171c-1.558 0-3.021-.606-4.122-1.707zm28.293-4.122c0 1.557-.606 3.021-1.707 4.122s-2.564 1.707-4.122 1.707h-6.171v-25h12zm9-.171h-7v-4h8v3c0 .551-.449 1-1 1zm1-6h-8v-3c0-1.945 1.283-2.777 3.551-4.081 1.495-.859 3.176-1.834 4.449-3.44zm-5.446-8.814c-.892.513-1.789 1.038-2.554 1.68v-14.262c0-3.383 1.18-6.689 3.322-9.307l2.164-2.645c1.587 1.923 2.514 4.375 2.514 6.997v9.351c0 5.056-2.769 6.647-5.446 8.186z"/><path d="m43 40h-2c-1.103 0-2 .897-2 2v8c0 1.103.897 2 2 2h2c1.103 0 2-.897 2-2v-8c0-1.103-.897-2-2-2zm-2 10v-8h2l.001 8z"/><path d="m23 40h-2c-1.103 0-2 .897-2 2v8c0 1.103.897 2 2 2h2c1.103 0 2-.897 2-2v-8c0-1.103-.897-2-2-2zm-2 10v-8h2l.001 8z"/><circle cx="32" cy="22" r="1"/></g></svg>