<?xml version="1.0" encoding="utf-8"?>
<!-- Generator: Adobe Illustrator 16.0.0, SVG Export Plug-In . SVG Version: 6.00 Build 0)  -->
<!DOCTYPE svg PUBLIC "-//W3C//DTD SVG 1.0//EN" "http://www.w3.org/TR/2001/REC-SVG-20010904/DTD/svg10.dtd">
<svg version="1.0" id="Capa_1" xmlns="http://www.w3.org/2000/svg" xmlns:xlink="http://www.w3.org/1999/xlink" x="0px" y="0px"
	 width="300px" height="300px" viewBox="0 0 300 300" enable-background="new 0 0 300 300" xml:space="preserve">
<g>
	<g>
		<path d="M275,163.953l-54.07,18.605l-21.802-12.5V150v-19.768l21.802-12.5L275,136.337c3.779,1.453,8.14-0.872,9.302-4.651
			c1.454-3.779-0.872-8.14-4.65-9.302L237.79,108.14l39.244-22.674c3.489-2.035,4.651-6.686,2.617-10.175
			c-2.035-3.488-6.687-4.651-10.175-2.616l-39.244,22.674l8.43-43.314c0.872-4.069-1.744-7.849-5.813-8.721
			s-7.849,1.744-8.721,5.814l-11.047,56.104l-21.802,12.5l-16.57-9.593l-0.291-0.291l-16.86-9.884v-25l43.023-37.5
			c3.198-2.617,3.488-7.268,0.581-10.465c-2.616-3.198-7.267-3.488-10.465-0.582l-33.14,29.07V7.558C157.558,3.488,154.361,0,150,0
			c-4.07,0-7.559,3.198-7.559,7.558v45.349l-33.14-28.779c-3.197-2.616-7.849-2.326-10.465,0.582
			c-2.616,3.197-2.325,7.849,0.581,10.465l43.023,37.5v25l-16.86,9.884l-16.86,9.884l-21.803-12.5L75.872,48.837
			c-0.872-4.07-4.651-6.686-8.721-5.814c-4.07,0.872-6.687,4.651-5.814,8.721l8.431,43.314L30.524,72.384
			c-3.489-2.035-8.14-0.872-10.175,2.616s-0.872,8.14,2.616,10.174l39.244,22.674l-41.86,14.245
			c-3.779,1.453-6.104,5.523-4.651,9.302c1.454,3.779,5.523,6.104,9.303,4.651l54.069-18.604l21.803,12.5V150v19.768h0.29
			l-21.802,12.5l-54.07-18.605c-3.778-1.453-8.139,0.873-9.302,4.652c-1.454,3.779,0.872,8.139,4.651,9.302L62.5,191.86
			l-39.244,22.675c-3.488,2.035-4.651,6.686-2.616,10.174c2.034,3.488,6.686,4.651,10.174,2.617l39.244-22.675l-8.43,43.313
			c-0.872,4.07,1.744,7.85,5.813,8.721c4.07,0.873,7.849-1.744,8.721-5.813l11.047-56.104l21.803-12.5l17.15,9.884l16.861,9.884v25
			L100,264.535c-3.198,2.616-3.488,7.268-0.582,10.465c2.616,3.197,7.268,3.488,10.466,0.582l33.14-29.07v45.93
			c0,4.07,3.197,7.559,7.558,7.559c4.07,0,7.559-3.197,7.559-7.559v-45.348l33.14,29.068c3.197,2.617,7.849,2.326,10.465-0.58
			c2.616-3.198,2.325-7.85-0.582-10.466l-43.604-37.79v-25l16.86-9.885l16.861-9.883l21.802,12.5l11.047,56.104
			c0.872,4.07,4.651,6.688,8.721,5.814c4.069-0.872,6.686-4.65,5.813-8.721l-8.43-43.314l39.244,22.675
			c3.488,2.035,8.14,0.872,10.175-2.616c2.034-3.488,0.872-8.14-2.617-10.174l-39.244-22.675l41.861-14.245
			c3.778-1.453,6.104-5.522,4.65-9.302C282.849,164.826,278.78,162.5,275,163.953z M183.43,150v19.768l-16.86,9.884L150,189.244
			l-17.151-9.884l-16.86-9.884V150v-19.768l16.86-9.884l16.86-9.883l16.86,9.883l0.291,0.291l16.569,9.593V150z"/>
	</g>
</g>
</svg>
