<?xml version="1.0" encoding="utf-8"?>
<!-- Generator: Adobe Illustrator 16.0.0, SVG Export Plug-In . SVG Version: 6.00 Build 0)  -->
<!DOCTYPE svg PUBLIC "-//W3C//DTD SVG 1.0//EN" "http://www.w3.org/TR/2001/REC-SVG-20010904/DTD/svg10.dtd">
<svg version="1.0" id="Capa_1" xmlns="http://www.w3.org/2000/svg" xmlns:xlink="http://www.w3.org/1999/xlink" x="0px" y="0px"
	 width="512px" height="512px" viewBox="0 0 512 512" enable-background="new 0 0 512 512" xml:space="preserve">
<g>
	<circle cx="149.913" cy="340.869" r="7.501"/>
	<circle cx="128.697" cy="362.086" r="7.501"/>
	<circle cx="192.348" cy="298.434" r="7.501"/>
	<circle cx="171.131" cy="362.086" r="7.501"/>
	<circle cx="149.913" cy="383.303" r="7.501"/>
	<circle cx="192.348" cy="340.869" r="7.501"/>
	<circle cx="171.131" cy="319.653" r="7.501"/>
	<circle cx="213.566" cy="319.653" r="7.501"/>
	<circle cx="340.869" cy="149.913" r="7.501"/>
	<circle cx="362.086" cy="128.697" r="7.501"/>
	<circle cx="298.434" cy="192.348" r="7.501"/>
	<circle cx="362.086" cy="171.131" r="7.501"/>
	<circle cx="383.303" cy="149.913" r="7.501"/>
	<circle cx="340.869" cy="192.348" r="7.501"/>
	<circle cx="319.652" cy="171.131" r="7.501"/>
	<circle cx="319.652" cy="213.566" r="7.501"/>
	<path d="M186.638,472.974c0.663-0.736,1.398-1.646,2.299-2.76l86.269-106.713c9.938-12.291,20.526-24.359,31.475-35.87
		c2.854-3.003,2.751-7.741-0.267-10.605c-3.002-2.856-7.749-2.738-10.604,0.265c-11.225,11.8-22.082,24.175-32.271,36.779
		c-20.497,25.354-87.268,107.951-88.496,109.466c-2.05,2.533-4.2,4.926-6.42,7.146c-35.098,35.098-92.206,35.098-127.304,0
		s-35.098-92.206,0-127.304c2.206-2.205,4.601-4.358,7.105-6.394l109.5-88.519c33.224-26.856,63.684-57.317,90.536-90.535
		c20.497-25.354,87.268-107.952,88.496-109.466c2.051-2.534,4.201-4.926,6.42-7.146c35.098-35.098,92.206-35.098,127.304,0
		s35.098,92.205,0,127.304c-2.212,2.211-4.605,4.364-7.105,6.393l-109.5,88.52c-12.605,10.189-24.981,21.049-36.784,32.274
		c-3.001,2.855-3.119,7.604-0.265,10.605c2.896,3.019,7.604,3.12,10.604,0.266c11.512-10.95,23.582-21.541,35.875-31.479
		l109.51-88.526c2.912-2.361,5.695-4.865,8.274-7.444c40.946-40.946,40.947-107.573,0-148.521
		c-40.948-40.946-107.574-40.946-148.521,0c-2.579,2.579-5.083,5.362-7.444,8.273l-88.526,109.511
		c-26.193,32.403-55.903,62.11-88.305,88.305L38.983,325.327c-2.918,2.368-5.7,4.872-8.271,7.443
		c-40.947,40.946-40.948,107.573,0,148.521c40.947,40.946,107.573,40.946,148.521,0c2.589-2.59,5.095-5.376,7.446-8.283
		L186.638,472.974z"/>
</g>
</svg>
