<svg id="Capa_1" enable-background="new 0 0 511.902 511.902" height="512" viewBox="0 0 511.902 511.902" width="512" xmlns="http://www.w3.org/2000/svg"><g><circle cx="149.885" cy="340.804" r="7.5"/><circle cx="128.672" cy="362.017" r="7.5"/><circle cx="192.311" cy="298.377" r="7.5"/><circle cx="171.098" cy="362.017" r="7.5"/><circle cx="149.885" cy="383.23" r="7.5"/><circle cx="192.311" cy="340.804" r="7.5"/><circle cx="171.098" cy="319.591" r="7.5"/><circle cx="213.525" cy="319.591" r="7.5"/><circle cx="340.804" cy="149.885" r="7.5"/><circle cx="362.017" cy="128.672" r="7.5"/><circle cx="298.377" cy="192.311" r="7.5"/><circle cx="362.017" cy="171.098" r="7.5"/><circle cx="383.23" cy="149.885" r="7.5"/><circle cx="340.804" cy="192.311" r="7.5"/><circle cx="319.591" cy="171.098" r="7.5"/><circle cx="319.591" cy="213.525" r="7.5"/><path d="m186.602 472.884c.663-.737 1.398-1.647 2.299-2.76l86.252-106.692c9.935-12.289 20.522-24.355 31.468-35.863 2.854-3.002 2.751-7.74-.266-10.604-3.001-2.855-7.748-2.737-10.603.265-11.222 11.798-22.078 24.17-32.264 36.772-20.493 25.35-87.251 107.931-88.479 109.445-2.05 2.533-4.2 4.925-6.419 7.144-35.091 35.091-92.188 35.091-127.279 0s-35.091-92.188 0-127.279c2.205-2.205 4.599-4.358 7.104-6.392l109.479-88.502c33.217-26.851 63.671-57.306 90.519-90.518 20.493-25.35 87.251-107.931 88.479-109.445 2.05-2.533 4.2-4.925 6.419-7.144 35.091-35.091 92.188-35.091 127.279 0s35.091 92.188 0 127.279c-2.211 2.211-4.604 4.364-7.104 6.392l-109.479 88.502c-12.603 10.188-24.977 21.045-36.777 32.269-3.001 2.855-3.119 7.602-.265 10.603 2.896 3.018 7.603 3.12 10.603.266 11.509-10.948 23.577-21.537 35.868-31.473l109.489-88.509c2.911-2.361 5.694-4.865 8.272-7.443 40.939-40.939 40.94-107.553 0-148.492s-107.553-40.939-148.492 0c-2.578 2.578-5.082 5.361-7.443 8.272l-88.509 109.489c-26.189 32.397-55.893 62.099-88.288 88.288l-109.49 88.511c-2.917 2.367-5.699 4.871-8.27 7.441-40.939 40.939-40.94 107.553 0 148.492s107.553 40.939 148.492 0c2.589-2.589 5.094-5.375 7.445-8.281z"/></g></svg>