<?xml version="1.0" encoding="utf-8"?>
<!-- Generator: Adobe Illustrator 16.0.0, SVG Export Plug-In . SVG Version: 6.00 Build 0)  -->
<!DOCTYPE svg PUBLIC "-//W3C//DTD SVG 1.1//EN" "http://www.w3.org/Graphics/SVG/1.1/DTD/svg11.dtd">
<svg version="1.1" id="Layer_1" xmlns="http://www.w3.org/2000/svg" xmlns:xlink="http://www.w3.org/1999/xlink" x="0px" y="0px"
	 width="300px" height="300px" viewBox="0 0 300 300" enable-background="new 0 0 300 300" xml:space="preserve">
<g>
	<g>
		<path d="M212.369,155.309c-3.768-1.506-4.75-3.226-4.085-6.572c-2.345-1.475-4.662-2.792-6.802-4.357
			c-0.695-0.509-1.328-1.676-1.295-2.514c0.103-2.59-0.443-4.772-3.001-6.493c-1.487,0.632-3.292,1.297-4.982,2.177
			c-0.521,0.271-0.894,1.09-1.066,1.73c-0.784,2.908-1.435,5.851-2.235,8.753c-0.125,0.456-0.771,0.767-1.228,1.191
			c0.007,0.045-0.003,0.211,0.058,0.348c1.521,3.44,3.191,6.44-0.288,10.243c-2.917,3.184-2.27,3.687,1.418,6.293
			c2.471,1.744,4.695,3.854,7.242,5.467c2.714,1.719,3.193,4.201,3.445,7.059c0.803,9.184-1.046,18.055-2.817,26.965
			c-0.715,3.596-1.405,7.086-4.625,9.424c-0.363,0.262-0.555,0.826-0.719,1.291c-1.935,5.455-3.84,10.92-5.772,16.373
			c-0.596,1.676-0.273,2.908,1.087,4.219c4.161,4.013,4.632,6.695,2.036,11.93c-0.564,1.141-2.046,1.826-3.435,3.002
			c1.011,1.189,1.993,2.624,3.243,3.768c7.013,6.42,14.074,12.789,21.151,19.135c4.636,4.158,9.363,8.213,13.981,12.391
			c2.304,2.086,2.001,4.114-0.955,5.023c-2.693,0.832-5.578,1.287-8.398,1.416c-8.769,0.397-17.564,0.629-25.231-4.805
			c-1.294-0.916-2.514-1.961-3.654-3.063c-38.86-37.543-77.678-75.131-116.59-112.619c-6.191-5.966-12.6-11.667-16.498-19.533
			c-2.534-5.117-4.381-10.349-3.285-16.224c0.779-4.176,2.625-7.721,6.874-8.812c4.067-1.043,7.683,0.996,10.375,3.875
			c8.335,8.91,16.436,18.042,24.667,27.045c2.503,2.736,5.135,2.965,8.545,1.562c3.004-1.233,6.179-2.063,9.307-2.97
			c3.759-1.088,7.449-2.234,9.835-5.678c0.141-0.205,0.319-0.439,0.535-0.527c4.544-1.844,4-6.024,4.669-9.759
			c0.496-2.767,1.075-5.714,2.487-8.056c1.043-1.727,3.531-2.552,5.302-3.879c1.067-0.801,2.391-1.609,2.903-2.732
			c1.298-2.839,3.346-4.559,6.572-5.323c-0.924-4.205,0.788-7.473,3.007-10.833c1.571-2.38,1.99-5.493,3.198-8.154
			c0.859-1.894,2.149-3.6,3.3-5.355c0.842-1.287,0.504-2.01-0.777-2.822c-1.348-0.853-2.758-1.886-3.611-3.188
			c-3.958-6.026-7.676-12.208-11.586-18.266c-3.729-5.777-4.777-12.498-6.767-18.875c-1.469-4.71-1.93-9.792-3.817-14.297
			c-1.874-4.473-1.992-9.014-2.43-13.599c-0.156-1.637-0.238-3.341,1.531-4.483c0.456-0.293,0.571-1.331,0.594-2.034
			c0.055-1.765,0.078-3.545-0.111-5.295c-0.089-0.832-0.494-1.833-1.1-2.369c-2.337-2.069-2.41-2.721-0.118-4.976
			c2.086-2.054,5.708-1.573,8.049,1.014c2.597,2.868,4.532,5.834,3.985,10.088c-0.381,2.969,0.227,3.397,2.119,3.797
			c1.24,7.194,2.231,14.372,5.354,21.066c1.339,2.872,2.158,5.985,3.271,8.967c0.25,0.67,0.603,1.446,1.147,1.84
			c4.434,3.204,6.815,7.766,8.709,12.704c0.533,1.388,1.289,2.702,2.054,3.984c1.438,2.413,3.458,3.105,6.393,3.317
			c4.179,0.302,8.35,1.611,12.353,2.988c1.419,0.489,2.478,2.34,3.444,3.746c0.963,1.401,1.563,1.748,2.766,0.21
			c5.979-7.648,19.725-9.353,27.935-3.537c8.078,5.723,10.316,17.774,4.894,26.434c-1.457,2.326-3.587,3.723-6.25,4.333
			c-0.95,0.218-1.899,0.442-2.851,0.664c-0.239,0.34-0.479,0.68-0.721,1.021c0.689,0.307,1.4,0.573,2.063,0.929
			c2.474,1.331,3.058,2.736,1.687,5.282c-1.333,2.473-1.086,4.819-0.256,7.276c0.537,1.589,1.136,3.163,1.574,4.779
			c0.601,2.214,1.458,4.034,4.11,4.367c0.559,0.07,1.31,0.807,1.486,1.385c1.675,5.432,6.104,8.933,9.213,13.352
			c0.566,0.803,1.203,1.617,1.518,2.525c1.479,4.283,2.965,8.568,4.234,12.915c1.11,3.801,3.434,6.791,5.57,10.018
			c1.966,2.974,2.935,6.674,3.948,10.166c0.432,1.488-0.069,3.279-2.47,3.123c-0.396-0.026-0.902,0.361-1.224,0.688
			c-2.177,2.228-4.795,1.753-6.583-0.836c-1.342-1.942-3.161-3.54-3.146-6.161c0.002-0.222-0.394-0.597-0.65-0.646
			c-4.967-0.936-5.817-5.452-7.068-9.018c-1.173-3.348-1.787-6.847-4.05-9.725c-0.149-0.189-0.31-0.385-0.495-0.541
			C212.263,158.102,212.262,158.102,212.369,155.309z M165.646,235.382c0.333-0.284,0.523-0.366,0.561-0.491
			c3.442-11.846,6.401-23.791,7.261-36.152c0.058-0.832-0.278-1.852-0.771-2.541c-2.534-3.551-5.117-7.071-7.833-10.487
			c-0.712-0.896-1.899-1.838-2.96-1.96c-4.4-0.496-8.84-0.648-13.258-1.007c-3.619-0.296-6.875-1.106-8.641-4.935
			c-1.266-2.736-7.335-3.324-8.725-0.729c-2.317,4.338-6.593,6.354-9.961,9.415c-2.426,2.205-2.781,2.866-0.503,5.146
			c12.12,12.118,24.271,24.211,36.471,36.252C159.953,230.525,162.869,232.906,165.646,235.382z"/>
	</g>
	<g>
		<path fill="#00D9FF" d="M212.369,155.309c-3.768-1.506-4.75-3.226-4.085-6.572c-2.345-1.475-4.662-2.792-6.802-4.357
			c-0.695-0.509-1.328-1.676-1.295-2.514c0.103-2.59-0.443-4.772-3.001-6.493c-1.487,0.632-3.292,1.297-4.982,2.177
			c-0.521,0.271-0.894,1.09-1.066,1.73c-0.784,2.908-1.435,5.851-2.235,8.753c-0.125,0.456-0.771,0.767-1.228,1.191
			c0.007,0.045-0.003,0.211,0.058,0.348c1.521,3.44,3.191,6.44-0.288,10.243c-2.917,3.184-2.27,3.687,1.418,6.293
			c2.471,1.744,4.695,3.854,7.242,5.467c2.714,1.719,3.193,4.201,3.445,7.059c0.803,9.184-1.046,18.055-2.817,26.965
			c-0.715,3.596-1.405,7.086-4.625,9.424c-0.363,0.262-0.555,0.826-0.719,1.291c-1.935,5.455-3.84,10.92-5.772,16.373
			c-0.596,1.676-0.273,2.908,1.087,4.219c4.161,4.013,4.632,6.695,2.036,11.93c-0.564,1.141-2.046,1.826-3.435,3.002
			c1.011,1.189,1.993,2.624,3.243,3.768c7.013,6.42,14.074,12.789,21.151,19.135c4.636,4.158,9.363,8.213,13.981,12.391
			c2.304,2.086,2.001,4.114-0.955,5.023c-2.693,0.832-5.578,1.287-8.398,1.416c-8.769,0.397-17.564,0.629-25.231-4.805
			c-1.294-0.916-2.514-1.961-3.654-3.063c-38.86-37.543-77.678-75.131-116.59-112.619c-6.191-5.966-12.6-11.667-16.498-19.533
			c-2.534-5.117-4.381-10.349-3.285-16.224c0.779-4.176,2.625-7.721,6.874-8.812c4.067-1.043,7.683,0.996,10.375,3.875
			c8.335,8.91,16.436,18.042,24.667,27.045c2.503,2.736,5.135,2.965,8.545,1.562c3.004-1.233,6.179-2.063,9.307-2.97
			c3.759-1.088,7.449-2.234,9.835-5.678c0.141-0.205,0.319-0.439,0.535-0.527c4.544-1.844,4-6.024,4.669-9.759
			c0.496-2.767,1.075-5.714,2.487-8.056c1.043-1.727,3.531-2.552,5.302-3.879c1.067-0.801,2.391-1.609,2.903-2.732
			c1.298-2.839,3.346-4.559,6.572-5.323c-0.924-4.205,0.788-7.473,3.007-10.833c1.571-2.38,1.99-5.493,3.198-8.154
			c0.859-1.894,2.149-3.6,3.3-5.355c0.842-1.287,0.504-2.01-0.777-2.822c-1.348-0.853-2.758-1.886-3.611-3.188
			c-3.958-6.026-7.676-12.208-11.586-18.266c-3.729-5.777-4.777-12.498-6.767-18.875c-1.469-4.71-1.93-9.792-3.817-14.297
			c-1.874-4.473-1.992-9.014-2.43-13.599c-0.156-1.637-0.238-3.341,1.531-4.483c0.456-0.293,0.571-1.331,0.594-2.034
			c0.055-1.765,0.078-3.545-0.111-5.295c-0.089-0.832-0.494-1.833-1.1-2.369c-2.337-2.069-2.41-2.721-0.118-4.976
			c2.086-2.054,5.708-1.573,8.049,1.014c2.597,2.868,4.532,5.834,3.985,10.088c-0.381,2.969,0.227,3.397,2.119,3.797
			c1.24,7.194,2.231,14.372,5.354,21.066c1.339,2.872,2.158,5.985,3.271,8.967c0.25,0.67,0.603,1.446,1.147,1.84
			c4.434,3.204,6.815,7.766,8.709,12.704c0.533,1.388,1.289,2.702,2.054,3.984c1.438,2.413,3.458,3.105,6.393,3.317
			c4.179,0.302,8.35,1.611,12.353,2.988c1.419,0.489,2.478,2.34,3.444,3.746c0.963,1.401,1.563,1.748,2.766,0.21
			c5.979-7.648,19.725-9.353,27.935-3.537c8.078,5.723,10.316,17.774,4.894,26.434c-1.457,2.326-3.587,3.723-6.25,4.333
			c-0.95,0.218-1.899,0.442-2.851,0.664c-0.239,0.34-0.479,0.68-0.721,1.021c0.689,0.307,1.4,0.573,2.063,0.929
			c2.474,1.331,3.058,2.736,1.687,5.282c-1.333,2.473-1.086,4.819-0.256,7.276c0.537,1.589,1.136,3.163,1.574,4.779
			c0.601,2.214,1.458,4.034,4.11,4.367c0.559,0.07,1.31,0.807,1.486,1.385c1.675,5.432,6.104,8.933,9.213,13.352
			c0.566,0.803,1.203,1.617,1.518,2.525c1.479,4.283,2.965,8.568,4.234,12.915c1.11,3.801,3.434,6.791,5.57,10.018
			c1.966,2.974,2.935,6.674,3.948,10.166c0.432,1.488-0.069,3.279-2.47,3.123c-0.396-0.026-0.902,0.361-1.224,0.688
			c-2.177,2.228-4.795,1.753-6.583-0.836c-1.342-1.942-3.161-3.54-3.146-6.161c0.002-0.222-0.394-0.597-0.65-0.646
			c-4.967-0.936-5.817-5.452-7.068-9.018c-1.173-3.348-1.787-6.847-4.05-9.725c-0.149-0.189-0.31-0.385-0.495-0.541
			C212.263,158.102,212.262,158.102,212.369,155.309z M165.646,235.382c0.333-0.284,0.523-0.366,0.561-0.491
			c3.442-11.846,6.401-23.791,7.261-36.152c0.058-0.832-0.278-1.852-0.771-2.541c-2.534-3.551-5.117-7.071-7.833-10.487
			c-0.712-0.896-1.899-1.838-2.96-1.96c-4.4-0.496-8.84-0.648-13.258-1.007c-3.619-0.296-6.875-1.106-8.641-4.935
			c-1.266-2.736-7.335-3.324-8.725-0.729c-2.317,4.338-6.593,6.354-9.961,9.415c-2.426,2.205-2.781,2.866-0.503,5.146
			c12.12,12.118,24.271,24.211,36.471,36.252C159.953,230.525,162.869,232.906,165.646,235.382z"/>
	</g>
</g>
</svg>
