<?xml version="1.0" encoding="utf-8"?>
<!-- Generator: Adobe Illustrator 16.0.0, SVG Export Plug-In . SVG Version: 6.00 Build 0)  -->
<!DOCTYPE svg PUBLIC "-//W3C//DTD SVG 1.0//EN" "http://www.w3.org/TR/2001/REC-SVG-20010904/DTD/svg10.dtd">
<svg version="1.0" id="Layer_2" xmlns="http://www.w3.org/2000/svg" xmlns:xlink="http://www.w3.org/1999/xlink" x="0px" y="0px"
	 width="512px" height="512px" viewBox="0 0 512 512" enable-background="new 0 0 512 512" xml:space="preserve">
<title>JEANS</title>
<path d="M387,50.912V7c0.002-3.863-3.129-6.997-6.992-7c-0.003,0-0.006,0-0.008,0H132c-3.864-0.002-6.998,3.129-7,6.992
	c0,0.003,0,0.006,0,0.008v43.912c-10.178,4.93-16.649,15.235-16.668,26.544V505c-0.003,3.864,3.128,6.998,6.992,7
	c0.002,0,0.005,0,0.008,0h100.636c3.494-0.002,6.453-2.578,6.936-6.039L256,266.992l33.096,238.969
	c0.482,3.461,3.441,6.037,6.937,6.039h100.636c3.863,0.003,6.997-3.128,7-6.991c0-0.003,0-0.006,0-0.009V77.456
	C403.649,66.147,397.177,55.842,387,50.912z M263,215.488v-34.604c21.019-3.441,36.461-21.585,36.5-42.884V61.916h41.699V132
	c0,2.353,1.181,4.549,3.145,5.845l45.332,29.924V468.5h-91.632L263,215.488z M213.956,468.5h-91.624V167.768l45.332-29.924
	c1.96-1.298,3.138-3.493,3.136-5.845V61.916H249v153.572L213.956,468.5z M285.5,61.916V138c-0.017,13.591-9.302,25.418-22.5,28.66
	V61.916H285.5z M389.668,150.992l-34.469-22.756v-66.32h18.933c8.578,0.012,15.53,6.962,15.544,15.54L389.668,150.992z M373,47.916
	h-45.669V14H373V47.916z M313.331,14v33.916H198.668V14H313.331z M139,14h45.668v33.916H139V14z M122.332,77.456
	c0.013-8.578,6.965-15.528,15.544-15.54H156.8v66.32l-34.476,22.756L122.332,77.456z M122.332,498v-15.5H212l-2.145,15.5H122.332z
	 M302.128,498L300,482.5h89.668V498H302.128z"/>
</svg>
