<svg height="512" viewBox="0 0 36 60" width="512" xmlns="http://www.w3.org/2000/svg"><g id="026---Joggers"><path id="Shape" d="m33 0h-30c-1.1045695 0-2 .8954305-2 2v2.78c-.63214393.56538472-.99544667 1.37191681-1 2.22v46c0 1.6568542 1.34314575 3 3 3v2c0 1.1045695.8954305 2 2 2h6c1.1045695 0 2-.8954305 2-2v-2c1.6568542 0 3-1.3431458 3-3v-29c.0022328-.5295768.2144122-1.0366497.59-1.41.5931114-.5955638 1.4953079-.7567397 2.2579434-.4033778.7626355.3533618 1.2229576 1.1458514 1.1520566 1.9833778v28.83c0 1.6568542 1.3431458 3 3 3v2c0 1.1045695.8954305 2 2 2h6c1.1045695 0 2-.8954305 2-2v-2c1.6568542 0 3-1.3431458 3-3v-46c-.0045533-.84808319-.3678561-1.65461528-1-2.22v-2.78c0-1.1045695-.8954305-2-2-2zm-30 2h30v2h-30zm8 56h-6v-2h6zm20 0h-6v-2h6zm3-5c0 .5522847-.4477153 1-1 1h-10c-.5522847 0-1-.4477153-1-1v-28.83c-.0021258-.7626708-.2056566-1.5112501-.59-2.17h1.59c.5522847 0 1-.4477153 1-1s-.4477153-1-1-1h-10c-.5522847 0-1 .4477153-1 1s.4477153 1 1 1h1.55c-.3560049.6067073-.545717 1.2965692-.55 2v29c0 .5522847-.4477153 1-1 1h-10c-.55228475 0-1-.4477153-1-1v-16c.55228475 0 1-.4477153 1-1s-.44771525-1-1-1v-2h1c.55228475 0 1-.4477153 1-1s-.44771525-1-1-1h-1v-12c3.86599325 0 7-3.1340068 7-7v-2c0-.55228475-.44771525-1-1-1s-1 .44771525-1 1v2c0 2.7614237-2.23857625 5-5 5v-10c0-.55228475.44771525-1 1-1h30c.5522847 0 1 .44771525 1 1v10c-2.7614237 0-5-2.2385763-5-5v-2c0-.55228475-.4477153-1-1-1s-1 .44771525-1 1v2c0 3.8659932 3.1340068 7 7 7v12h-1c-.5522847 0-1 .4477153-1 1s.4477153 1 1 1h1v2c-.5522847 0-1 .4477153-1 1s.4477153 1 1 1z"/><path id="Shape" d="m16 8h-2c-.5522847 0-1 .44771525-1 1s.4477153 1 1 1v7c0 .5522847.4477153 1 1 1s1-.4477153 1-1v-7c.5522847 0 1-.44771525 1-1s-.4477153-1-1-1z"/><path id="Shape" d="m22 8h-2c-.5522847 0-1 .44771525-1 1s.4477153 1 1 1v7c0 .5522847.4477153 1 1 1s1-.4477153 1-1v-7c.5522847 0 1-.44771525 1-1s-.4477153-1-1-1z"/></g></svg>