<?xml version="1.0" encoding="utf-8"?>
<!-- Generator: Adobe Illustrator 16.0.0, SVG Export Plug-In . SVG Version: 6.00 Build 0)  -->
<!DOCTYPE svg PUBLIC "-//W3C//DTD SVG 1.0//EN" "http://www.w3.org/TR/2001/REC-SVG-20010904/DTD/svg10.dtd">
<svg version="1.0" id="Layer_1" xmlns="http://www.w3.org/2000/svg" xmlns:xlink="http://www.w3.org/1999/xlink" x="0px" y="0px"
	 width="512px" height="512px" viewBox="0 0 512 512" enable-background="new 0 0 512 512" xml:space="preserve">
<g id="_x30_26---Joggers">
	<path id="Shape" d="M384,0H128c-9.426,0-17.067,7.642-17.067,17.067V40.79c-5.394,4.824-8.494,11.707-8.533,18.943v392.534
		c0,14.138,11.462,25.6,25.601,25.6v17.066c0,9.426,7.641,17.066,17.066,17.066h51.2c9.426,0,17.066-7.641,17.066-17.066v-17.066
		c14.139,0,25.6-11.462,25.6-25.6V204.8c0.02-4.519,1.83-8.846,5.035-12.031c5.062-5.082,12.76-6.458,19.268-3.442
		s10.437,9.778,9.831,16.925v246.017c0,14.138,11.462,25.6,25.6,25.6v17.066c0,9.426,7.642,17.066,17.066,17.066h51.2
		c9.426,0,17.067-7.641,17.067-17.066v-17.066c14.138,0,25.6-11.462,25.6-25.6V59.733c-0.039-7.236-3.139-14.119-8.533-18.943
		V17.067C401.067,7.641,393.425,0,384,0z M128,17.067h256v17.066H128V17.067z M196.267,494.933h-51.2v-17.066h51.2V494.933z
		 M366.933,494.933h-51.2v-17.066h51.2V494.933z M392.533,452.267c0,4.713-3.821,8.533-8.533,8.533h-85.334
		c-4.713,0-8.533-3.82-8.533-8.533V206.251c-0.018-6.508-1.755-12.896-5.034-18.518h13.567c4.713,0,8.533-3.82,8.533-8.533
		s-3.82-8.533-8.533-8.533h-85.333c-4.713,0-8.533,3.82-8.533,8.533s3.82,8.533,8.533,8.533h13.227
		c-3.038,5.178-4.656,11.064-4.693,17.066v247.468c0,4.713-3.82,8.533-8.533,8.533H128c-4.713,0-8.533-3.82-8.533-8.533V315.733
		c4.713,0,8.533-3.82,8.533-8.533s-3.82-8.533-8.533-8.533V281.6H128c4.713,0,8.533-3.821,8.533-8.533
		c0-4.713-3.82-8.534-8.533-8.534h-8.533V162.134c32.989,0,59.733-26.744,59.733-59.733V85.334c0-4.713-3.821-8.534-8.534-8.534
		s-8.533,3.821-8.533,8.534V102.4c0,23.564-19.103,42.667-42.666,42.667V59.733c0-4.713,3.82-8.533,8.533-8.533h256
		c4.712,0,8.533,3.82,8.533,8.533v85.334c-23.564,0-42.667-19.103-42.667-42.667V85.334c0-4.713-3.82-8.534-8.533-8.534
		s-8.533,3.821-8.533,8.534V102.4c0,32.989,26.743,59.733,59.733,59.733v102.399H384c-4.713,0-8.534,3.821-8.534,8.534
		c0,4.712,3.821,8.533,8.534,8.533h8.533v17.066c-4.713,0-8.533,3.82-8.533,8.533s3.82,8.533,8.533,8.533V452.267z"/>
	<path id="Shape_1_" d="M238.933,68.266h-17.066c-4.713,0-8.533,3.821-8.533,8.533c0,4.713,3.82,8.534,8.533,8.534v59.733
		c0,4.712,3.82,8.533,8.533,8.533s8.533-3.821,8.533-8.533V85.334c4.713,0,8.534-3.821,8.534-8.534
		C247.467,72.088,243.646,68.266,238.933,68.266z"/>
	<path id="Shape_2_" d="M290.133,68.266h-17.066c-4.713,0-8.533,3.821-8.533,8.533c0,4.713,3.82,8.534,8.533,8.534v59.733
		c0,4.712,3.82,8.533,8.533,8.533s8.533-3.821,8.533-8.533V85.334c4.713,0,8.533-3.821,8.533-8.534
		C298.666,72.088,294.846,68.266,290.133,68.266z"/>
</g>
</svg>